<svg id="delivery-truck" xmlns="http://www.w3.org/2000/svg" width="65.998" height="48" viewBox="0 0 65.998 48">
  <g id="Group_274" data-name="Group 274">
    <g id="Group_273" data-name="Group 273">
      <path id="Path_366" data-name="Path 366" d="M53.43,84.213H49.275l1.252-14.3c0-.026,0-.051,0-.077,0,0,0,0,0-.006h0a.962.962,0,0,0-.583-.881l-.009,0c-.022-.009-.044-.017-.066-.024l-.025-.009-.056-.014-.039-.009-.05-.008-.047-.006h-.008l-.051,0-.034,0H29.778a.962.962,0,1,0,0,1.924H48.509L46.585,92.77v.005L46.1,98.321H12.506l.562-5.771h6.4a.962.962,0,1,0,0-1.924H13.255l1.186-12.183h10.18a.962.962,0,1,0,0-1.924H14.629l.558-5.728H25.911a.962.962,0,1,0,0-1.924h-11.6a.966.966,0,0,0-.943.759l0,.009c0,.024-.008.048-.011.073,0,.008,0,.015,0,.023v0l-.66,6.783H.967a.962.962,0,1,0,0,1.924H12.5L11.313,90.626H7.863a.962.962,0,1,0,0,1.924h3.262l-.646,6.633v0l-1,10.257v.007c0,.013,0,.026,0,.04s0,.035,0,.053v0c0,.025,0,.049,0,.073,0,.008,0,.016,0,.023,0,.025.007.049.011.074,0,.007,0,.014,0,.022s.009.036.014.054.006.026.01.038l0,.01a.961.961,0,0,0,.23.377l.005.006.032.029a.959.959,0,0,0,.224.153c.017.008.034.017.052.025l.016.006c.024.01.049.019.074.027l.007,0c.029.008.057.016.087.022l.012,0c.028.005.056.01.085.013h0q.048,0,.094,0h4.305a7.364,7.364,0,0,0,14.591,0H44.845a7.364,7.364,0,0,0,14.591,0h4.307c.032,0,.064,0,.1,0l.017,0c.025,0,.05-.006.075-.011l.031-.007.057-.014.037-.012.047-.017.039-.017.042-.02.038-.021.039-.024.036-.024.038-.028.032-.025.038-.035.026-.025c.013-.014.026-.028.039-.042l.02-.023c.014-.017.027-.035.04-.053l.014-.019c.016-.023.031-.048.044-.072l0,0c.015-.027.028-.054.04-.082l.009-.024c.008-.02.016-.04.022-.06s.007-.027.011-.041.009-.032.012-.048.005-.029.008-.044.005-.026.007-.039c.041-.327.8-6.37,1.136-10.277,0,0,0-.008,0-.011.1-1.126.16-2.075.16-2.656A12.551,12.551,0,0,0,53.43,84.213Zm-4.324,1.924h3.955l-.505,5.771H48.6ZM22.043,114.943a5.4,5.4,0,1,1,5.427-5.4A5.42,5.42,0,0,1,22.043,114.943Zm30.1,0a5.4,5.4,0,1,1,5.427-5.4A5.42,5.42,0,0,1,52.141,114.943Zm10.746-6.362h-3.45a7.364,7.364,0,0,0-14.591,0H29.339a7.364,7.364,0,0,0-14.591,0H11.507l.812-8.337H46.986a.956.956,0,0,0,.1,0l.018,0c.025,0,.05-.007.075-.011l.032-.008.057-.015.038-.013.048-.018.04-.018.042-.02.039-.022.039-.024.036-.025.038-.028.033-.027.036-.032.029-.029.034-.037.025-.03.031-.041.022-.032.027-.045c.007-.011.013-.023.019-.034s.015-.031.022-.046.011-.025.017-.037.012-.031.017-.046.01-.027.014-.042.008-.03.012-.045.008-.03.011-.046,0-.031.007-.046.005-.032.007-.048,0,0,0-.007l.485-5.534h5c2.962,0,4.3,1.527,5.712,3.144,1.167,1.334,2.47,2.822,4.684,3.185C63.545,103.119,63.09,106.918,62.887,108.581Zm1.1-10.348c-1.437-.291-2.321-1.3-3.391-2.52-1.339-1.531-2.974-3.4-6.108-3.747l.5-5.713a10.614,10.614,0,0,1,9.072,10.466C64.064,97.079,64.037,97.6,63.991,98.233Z" transform="translate(0 -68.867)" fill="rgba(0,0,0,0.7)"/>
    </g>
  </g>
  <g id="Group_276" data-name="Group 276" transform="translate(18.499 37.094)">
    <g id="Group_275" data-name="Group 275">
      <path id="Path_367" data-name="Path 367" d="M147.053,358.524a3.545,3.545,0,1,0,3.545,3.545A3.549,3.549,0,0,0,147.053,358.524Zm0,5.156a1.611,1.611,0,1,1,1.611-1.611A1.613,1.613,0,0,1,147.053,363.68Z" transform="translate(-143.508 -358.524)" fill="rgba(0,0,0,0.7)"/>
    </g>
  </g>
  <g id="Group_278" data-name="Group 278" transform="translate(48.596 37.094)">
    <g id="Group_277" data-name="Group 277">
      <path id="Path_368" data-name="Path 368" d="M380.541,358.524a3.545,3.545,0,1,0,3.545,3.545A3.549,3.549,0,0,0,380.541,358.524Zm0,5.156a1.611,1.611,0,1,1,1.611-1.611A1.613,1.613,0,0,1,380.541,363.68Z" transform="translate(-376.996 -358.524)" fill="rgba(0,0,0,0.7)"/>
    </g>
  </g>
  <g id="Group_280" data-name="Group 280" transform="translate(3.459 15.343)">
    <g id="Group_279" data-name="Group 279" transform="translate(0 0)">
      <path id="Path_369" data-name="Path 369" d="M32.527,188.527H27.8a.967.967,0,1,0,0,1.934h4.726a.967.967,0,1,0,0-1.934Z" transform="translate(-26.834 -188.527)" fill="rgba(0,0,0,0.7)"/>
    </g>
  </g>
</svg>
