<svg id="guarantee" xmlns="http://www.w3.org/2000/svg" width="50" height="50" viewBox="0 0 50 50">
  <g id="linear_color" data-name="linear color">
    <path id="Path_378" data-name="Path 378" d="M121.824,198.295h-7.555v-4.256a6.974,6.974,0,0,0-.76-3.619c-.944-1.605-2.695-2.419-5.2-2.419a1.19,1.19,0,0,0-1.193,1.188v6.1l-2.136,3.456-2.636,1.715v-.973a1.19,1.19,0,0,0-1.193-1.188H93.193A1.19,1.19,0,0,0,92,199.482v19.005a1.19,1.19,0,0,0,1.193,1.188h7.953a1.192,1.192,0,0,0,1.018-.572,4.36,4.36,0,0,0,2.163.572h15.906a3.56,3.56,0,0,0,3-5.507,3.68,3.68,0,0,0,.329-.289,3.547,3.547,0,0,0,.466-4.462,3.679,3.679,0,0,0,.329-.289,3.548,3.548,0,0,0,.134-4.893,3.562,3.562,0,0,0-2.666-5.94ZM99.953,217.3H94.386V200.67h5.567Zm21.126-.349a1.192,1.192,0,0,1-.845.349H104.327a1.986,1.986,0,0,1-1.988-1.98V203.293l4.331-2.816a1.2,1.2,0,0,0,.523-.791l2.127-3.442a1.184,1.184,0,0,0,.177-.623v-5.157c2.185.37,2.386,1.843,2.386,3.573v5.444a1.19,1.19,0,0,0,1.193,1.188h8.748a1.188,1.188,0,1,1,0,2.376h-2.386a1.188,1.188,0,1,0,0,2.376h2.386a1.188,1.188,0,1,1,0,2.376h-2.386a1.188,1.188,0,1,0,0,2.376h1.591a1.188,1.188,0,1,1,0,2.376h-1.591a1.188,1.188,0,1,0,0,2.376h.8a1.187,1.187,0,0,1,.845,2.027Z" transform="translate(-83.306 -169.676)" fill="rgba(0,0,0,0.5)"/>
    <circle id="Ellipse_34" data-name="Ellipse 34" cx="1.188" cy="1.188" r="1.188" transform="translate(12.692 44.556)" fill="rgba(0,0,0,0.5)"/>
    <path id="Path_379" data-name="Path 379" d="M176.555,14.328l-.723,4.212a1.188,1.188,0,0,0,1.724,1.252l3.783-1.989,3.782,1.989a1.2,1.2,0,0,0,1.724-1.252l-.723-4.212,3.06-2.983a1.188,1.188,0,0,0-.658-2.026L184.295,8.7,182.4,4.873a1.188,1.188,0,0,0-2.13,0L178.382,8.7l-4.229.615a1.188,1.188,0,0,0-.658,2.026Zm2.787-3.362a1.188,1.188,0,0,0,.894-.65l1.1-2.234,1.1,2.234a1.188,1.188,0,0,0,.894.65l2.465.358-1.783,1.739a1.188,1.188,0,0,0-.342,1.051l.421,2.455-2.2-1.159a1.188,1.188,0,0,0-1.105,0l-2.2,1.159L179,14.114a1.188,1.188,0,0,0-.342-1.051l-1.784-1.739Z" transform="translate(-156.339 -4.21)" fill="rgba(0,0,0,0.5)"/>
    <path id="Path_380" data-name="Path 380" d="M359.1,108.936l-3.419-2.564.174-4.27a1.188,1.188,0,0,0-1.871-1.02l-3.494,2.459-4.007-1.485a1.188,1.188,0,0,0-1.548,1.464l1.259,4.084-2.65,3.352a1.188,1.188,0,0,0,.914,1.924l4.273.064L351.1,116.5a1.2,1.2,0,0,0,2.113-.274l1.382-4.044,4.115-1.154a1.188,1.188,0,0,0,.392-2.094Zm-5.749,1.129a1.188,1.188,0,0,0-.8.76l-.806,2.358-1.381-2.073a1.188,1.188,0,0,0-.971-.529l-2.491-.038,1.545-1.954a1.188,1.188,0,0,0,.2-1.087l-.734-2.38,2.336.866a1.188,1.188,0,0,0,1.1-.143l2.037-1.434-.1,2.489a1.188,1.188,0,0,0,.474,1l1.993,1.495Z" transform="translate(-309.575 -91.261)" fill="rgba(0,0,0,0.5)"/>
    <path id="Path_381" data-name="Path 381" d="M19.285,112.881a1.2,1.2,0,0,0,.914-1.924l-2.65-3.352,1.259-4.084a1.188,1.188,0,0,0-1.548-1.464l-4.007,1.485-3.494-2.459a1.188,1.188,0,0,0-1.871,1.02l.174,4.27-3.419,2.564a1.188,1.188,0,0,0,.392,2.094l4.115,1.154,1.382,4.044a1.2,1.2,0,0,0,2.113.274l2.369-3.557Zm-5.9-1.772L12,113.182l-.805-2.357a1.188,1.188,0,0,0-.8-.76l-2.4-.673L9.986,107.9a1.188,1.188,0,0,0,.474-1l-.1-2.489,2.037,1.434a1.188,1.188,0,0,0,1.1.143l2.336-.866-.734,2.38a1.188,1.188,0,0,0,.2,1.087l1.545,1.954-2.491.038a1.188,1.188,0,0,0-.971.529Z" transform="translate(-4.167 -91.261)" fill="rgba(0,0,0,0.5)"/>
  </g>
</svg>
