<svg xmlns="http://www.w3.org/2000/svg" width="27" height="19" viewBox="0 0 27 19">
  <g id="mail" transform="translate(0 -76)">
    <g id="Group_317" data-name="Group 317" transform="translate(18.562 77.358)">
      <g id="Group_316" data-name="Group 316">
        <path id="Path_3156" data-name="Path 3156" d="M360.411,101.721l-8.2,8.142,8.2,8.142a2.346,2.346,0,0,0,.238-1.017V102.738A2.346,2.346,0,0,0,360.411,101.721Z" transform="translate(-352.211 -101.721)" fill="rgba(255,255,255,0.75)"/>
      </g>
    </g>
    <g id="Group_319" data-name="Group 319" transform="translate(1.358 76)">
      <g id="Group_318" data-name="Group 318">
        <path id="Path_3157" data-name="Path 3157" d="M48.988,76H26.738a2.342,2.342,0,0,0-1.017.238L36.185,86.665a2.372,2.372,0,0,0,3.355,0L50,76.238A2.342,2.342,0,0,0,48.988,76Z" transform="translate(-25.721 -76)" fill="rgba(255,255,255,0.75)"/>
      </g>
    </g>
    <g id="Group_321" data-name="Group 321" transform="translate(0 77.358)">
      <g id="Group_320" data-name="Group 320">
        <path id="Path_3158" data-name="Path 3158" d="M.238,101.721A2.346,2.346,0,0,0,0,102.738v14.249A2.346,2.346,0,0,0,.238,118l8.2-8.142Z" transform="translate(0 -101.721)" fill="rgba(255,255,255,0.75)"/>
      </g>
    </g>
    <g id="Group_323" data-name="Group 323" transform="translate(1.358 86.615)">
      <g id="Group_322" data-name="Group 322">
        <path id="Path_3159" data-name="Path 3159" d="M41.817,277.211l-1.159,1.16a3.954,3.954,0,0,1-5.592,0l-1.159-1.16-8.187,8.147a2.342,2.342,0,0,0,1.017.238H48.988A2.342,2.342,0,0,0,50,285.358Z" transform="translate(-25.721 -277.211)" fill="rgba(255,255,255,0.75)"/>
      </g>
    </g>
  </g>
</svg>
