<svg xmlns="http://www.w3.org/2000/svg" width="16" height="16" viewBox="0 0 16 16">
  <g id="paper-plane" transform="translate(0 0)">
    <g id="Group_364" data-name="Group 364" transform="translate(1.477 0)">
      <g id="Group_363" data-name="Group 363">
        <path id="Path_3328" data-name="Path 3328" d="M68.363.042a.316.316,0,0,0-.319,0l-5.811,3.45a.318.318,0,0,0,.323.548l4.169-2.475-7.766,8.09L55.1,8.471l5.041-2.993a.318.318,0,0,0-.323-.548l-5.66,3.36a.319.319,0,0,0,.069.579l4.613,1.417L60.872,14l.007.01a.315.315,0,0,0,.493.064l2.34-2.3,4.4,1.352a.317.317,0,0,0,.41-.3V.318A.319.319,0,0,0,68.363.042Zm-7.474,10.44a.319.319,0,0,0-.056.181V12.61l-1.39-2.54,6.149-6.406Zm.578,2.613v-2l1.553.477Zm6.422-.695-6.231-1.914,6.231-9.031Z" transform="translate(-53.999 0)" fill="rgba(255,255,255,0.75)"/>
      </g>
    </g>
    <g id="Group_366" data-name="Group 366" transform="translate(1.477 11.424)">
      <g id="Group_365" data-name="Group 365">
        <path id="Path_3329" data-name="Path 3329" d="M57.019,344.728a.273.273,0,0,0-.387,0l-2.553,2.553a.273.273,0,0,0,.387.387l2.553-2.553A.273.273,0,0,0,57.019,344.728Z" transform="translate(-53.999 -344.648)" fill="rgba(255,255,255,0.75)"/>
      </g>
    </g>
    <g id="Group_368" data-name="Group 368" transform="translate(0 14.824)">
      <g id="Group_367" data-name="Group 367">
        <path id="Path_3330" data-name="Path 3330" d="M1.1,469.081a.274.274,0,0,0-.387,0l-.629.629a.273.273,0,0,0,.387.387l.629-.629A.273.273,0,0,0,1.1,469.081Z" transform="translate(0 -469.001)" fill="rgba(255,255,255,0.75)"/>
      </g>
    </g>
    <g id="Group_370" data-name="Group 370" transform="translate(3.945 15.437)">
      <g id="Group_369" data-name="Group 369">
        <path id="Path_3331" data-name="Path 3331" d="M126.047,491.49a.273.273,0,1,0,.08.193A.276.276,0,0,0,126.047,491.49Z" transform="translate(-125.58 -491.41)" fill="rgba(255,255,255,0.75)"/>
      </g>
    </g>
    <g id="Group_372" data-name="Group 372" transform="translate(4.797 13.402)">
      <g id="Group_371" data-name="Group 371">
        <path id="Path_3332" data-name="Path 3332" d="M152.353,417.086a.273.273,0,0,0-.387,0l-1.352,1.352a.273.273,0,1,0,.387.387l1.352-1.352A.273.273,0,0,0,152.353,417.086Z" transform="translate(-150.534 -417.006)" fill="rgba(255,255,255,0.75)"/>
      </g>
    </g>
    <g id="Group_376" data-name="Group 376" transform="translate(8.368 4.189)">
      <g id="Group_375" data-name="Group 375">
        <path id="Path_3334" data-name="Path 3334" d="M266.9,133.46a.273.273,0,1,0,.08.194A.276.276,0,0,0,266.9,133.46Z" transform="translate(-266.43 -133.38)" fill="rgba(255,255,255,0.75)"/>
      </g>
    </g>
  </g>
</svg>
