<svg id="product" xmlns="http://www.w3.org/2000/svg" width="48" height="50" viewBox="0 0 48 50">
  <path id="Path_376" data-name="Path 376" d="M46.374,23.164A23.185,23.185,0,1,0,33.021,44.151l-.2,4.68c0,.012,0,.023,0,.035a1.128,1.128,0,0,0,.652,1.025,1.107,1.107,0,0,0,1.2-.173l4.38-3.771,4.382,3.772a1.105,1.105,0,0,0,1.194.171,1.128,1.128,0,0,0,.652-1.025c0-.011,0-.023,0-.034l-.42-9.959a8.923,8.923,0,0,0,1.262-12.277,23.448,23.448,0,0,0,.253-3.431ZM23.185,44.708A21.544,21.544,0,1,1,44.747,23.164c0,.649-.031,1.3-.088,1.946a8.894,8.894,0,0,0-5.6-1.978,9.061,9.061,0,0,0-2.447.342V16.957a.819.819,0,0,0-.571-.774l-11.787-3.8a.824.824,0,0,0-.5,0l-11.792,3.8a.82.82,0,0,0-.572.774V33.029a.819.819,0,0,0,.571.774l11.787,3.8a.821.821,0,0,0,.5,0l6.535-2.105a8.987,8.987,0,0,0,2.461,3.377L33.1,42.3a21.607,21.607,0,0,1-9.914,2.409Zm6.922-12.634a8.927,8.927,0,0,0,.194,1.869l-5.9,1.9V21.477l10.577-3.4v6.043a8.847,8.847,0,0,0-4.875,7.958Zm-17.093-14,9.764,3.142V35.579l-9.764-3.142ZM24,19.9l-9.134-2.943L24,14.014l9.134,2.943ZM43.6,47.719l-3.8-3.269a1.1,1.1,0,0,0-1.509,0l-3.8,3.269.327-7.763a8.942,8.942,0,0,0,8.449,0ZM39.051,39.39a7.317,7.317,0,1,1,7.323-7.317A7.32,7.32,0,0,1,39.051,39.39Zm0,0" transform="translate(-0.002 0.007)" fill="#707070"/>
</svg>
