<svg id="promotion-icon" xmlns="http://www.w3.org/2000/svg" width="26" height="24" viewBox="0 0 26 24">
  <path id="Path_355" data-name="Path 355" d="M122.762,290.569a.532.532,0,1,0-.727-.195A.533.533,0,0,0,122.762,290.569Zm0,0" transform="translate(-115.782 -275.277)" fill="#497d22"/>
  <path id="Path_356" data-name="Path 356" d="M5.11,39.872l2.681,4.305A2.226,2.226,0,0,0,10.7,44.9a1.9,1.9,0,0,0,.779-2.7l-1.6-2.565,1.383-.74a.475.475,0,0,0,.195-.674l-.692-1.112,10.2-1.854a1.477,1.477,0,0,0,1.295-2.219L20.492,30.2l1.131-1.588a.463.463,0,0,0,.017-.519l-1.065-1.71a.545.545,0,0,0-.493-.246l-2.048.114L16.069,23.1a1.608,1.608,0,0,0-1.363-.74h-.02a1.617,1.617,0,0,0-1.345.683L6.385,31.252l-4.522,2.42A3.323,3.323,0,0,0,.5,38.392,3.88,3.88,0,0,0,5.11,39.872ZM10.559,42.7a.948.948,0,0,1-.39,1.348,1.113,1.113,0,0,1-1.454-.361L6.052,39.409,7.9,38.422,10.559,42.7ZM9.351,38.784l-.532-.855.922-.494.532.855ZM19.818,27.14l.736,1.181-.656.921-1.268-2.037Zm-5.586-3.56a.554.554,0,0,1,.916.01l6.193,9.944a.494.494,0,0,1-.448.74,2.1,2.1,0,0,0-.292.046L14.049,23.8c.137-.164.155-.18.182-.221Zm-.891,1.058L19.5,34.52l-9.289,1.689L7.382,31.674ZM1.422,37.9a2.328,2.328,0,0,1-.357-1.231A2.45,2.45,0,0,1,2.4,34.527l4.15-2.221L9.208,36.58,5.058,38.8a2.783,2.783,0,0,1-3.637-.9Zm0,0" transform="translate(0 -21.165)" fill="#497d22"/>
  <path id="Path_357" data-name="Path 357" d="M46.052,309.839a.533.533,0,0,0-.727-.195l-.922.532a.533.533,0,0,1-.727-.195.532.532,0,0,0-.922.532,1.6,1.6,0,0,0,2.182.585l.922-.532a.532.532,0,0,0,.195-.727Zm0,0" transform="translate(-40.409 -294.32)" fill="#497d22"/>
  <path id="Path_358" data-name="Path 358" d="M439.515,42.548,436.549,44.2a.532.532,0,0,0,.518.931l2.967-1.651a.532.532,0,0,0-.518-.931Zm0,0" transform="translate(-414.307 -40.219)" fill="#497d22"/>
  <path id="Path_359" data-name="Path 359" d="M442.791,137.19l-2.057-.551a.532.532,0,1,0-.276,1.028l2.057.551a.532.532,0,1,0,.275-1.028Zm0,0" transform="translate(-417.893 -129.887)" fill="#497d22"/>
  <path id="Path_360" data-name="Path 360" d="M384.062.4l-.552,2.057a.533.533,0,1,0,1.029.276l.552-2.057A.532.532,0,1,0,384.062.4Zm0,0" transform="translate(-364.078 0)" fill="#497d22"/>
</svg>
