<svg id="protected" xmlns="http://www.w3.org/2000/svg" width="14.703" height="14.703" viewBox="0 0 14.703 14.703">
  <path id="Path_382" data-name="Path 382" d="M17.063,19.352a.3.3,0,0,1-.123-.026C16.82,19.274,14,18.012,14,15.435V13.269a.307.307,0,0,1,.205-.289l2.757-.962a.309.309,0,0,1,.2,0l2.757.962a.307.307,0,0,1,.205.289v2.166c0,2.578-2.82,3.839-2.941,3.891a.3.3,0,0,1-.123.026Zm-2.45-5.865v1.949c0,1.9,1.938,3.01,2.45,3.27.512-.26,2.451-1.373,2.451-3.27V13.486l-2.45-.855Z" transform="translate(-5.423 -4.649)" fill="#f39200"/>
  <path id="Path_383" data-name="Path 383" d="M17.763,18.235h-.017a.3.3,0,0,1-.225-.118l-1-1.3A.307.307,0,0,1,17,16.445l.786,1.016L19.3,15.9a.306.306,0,0,1,.44.426l-1.754,1.814A.308.308,0,0,1,17.763,18.235Z" transform="translate(-6.374 -6.124)" fill="#f39200"/>
  <path id="Path_384" data-name="Path 384" d="M15.628,8.579a.306.306,0,0,1-.306-.306V5.552L9.949,8.24a.306.306,0,1,1-.274-.548l5.816-2.91a.307.307,0,0,1,.444.274V8.273a.306.306,0,0,1-.306.306Z" transform="translate(-3.682 -1.84)" fill="#f39200"/>
  <path id="Path_385" data-name="Path 385" d="M6.122,14.092a.3.3,0,0,1-.143-.036L.164,10.994A.306.306,0,0,1,0,10.723V5.056a.306.306,0,0,1,.443-.274l5.816,2.91a.307.307,0,0,1,.169.274v5.82a.308.308,0,0,1-.148.262A.3.3,0,0,1,6.122,14.092ZM.613,10.538l5.2,2.74V8.156l-5.2-2.6Z" transform="translate(0 -1.84)" fill="#f39200"/>
  <path id="Path_386" data-name="Path 386" d="M11.946,3.523a.309.309,0,0,1-.137-.032L6.123.649.444,3.49a.306.306,0,0,1-.274-.548L5.985.033a.308.308,0,0,1,.274,0l5.824,2.91a.306.306,0,0,1-.137.58Z" transform="translate(0 0)" fill="#f39200"/>
  <path id="Path_387" data-name="Path 387" d="M4.849,8.072a.306.306,0,0,1-.306-.306V5.488a.307.307,0,0,1,.169-.274L10.528,2.3a.306.306,0,0,1,.274.548L5.156,5.677V7.766a.306.306,0,0,1-.306.306Z" transform="translate(-1.76 -0.88)" fill="#f39200"/>
  <path id="Path_388" data-name="Path 388" d="M9.8,19.2a.307.307,0,0,1-.143-.577l1.229-.652a.307.307,0,0,1,.287.542l-1.229.652A.314.314,0,0,1,9.8,19.2Z" transform="translate(-3.678 -6.948)" fill="#f39200"/>
</svg>
