<svg xmlns="http://www.w3.org/2000/svg" width="43" height="49.999" viewBox="0 0 43 49.999">
  <g id="Group_282" data-name="Group 282" transform="translate(0 0)">
    <path id="Path_370" data-name="Path 370" d="M79.9,8.633A84.256,84.256,0,0,1,59.72.146a1.068,1.068,0,0,0-1.078,0A81.949,81.949,0,0,1,38.461,8.633a1.053,1.053,0,0,0-.78,1.014V20.394a30.8,30.8,0,0,0,9.468,22.588C51.8,47.5,57.215,50,59.181,50s7.383-2.5,12.033-7.016a30.8,30.8,0,0,0,9.467-22.588V9.648A1.053,1.053,0,0,0,79.9,8.633ZM78.56,20.394a28.742,28.742,0,0,1-8.831,21.085c-4.573,4.443-9.461,6.415-10.548,6.415s-5.976-1.973-10.548-6.415A28.743,28.743,0,0,1,39.8,20.394V10.446A83.911,83.911,0,0,0,59.181,2.27,86.567,86.567,0,0,0,78.56,10.446Z" transform="translate(-37.681 0)" fill="rgba(0,0,0,0.7)"/>
    <path id="Path_371" data-name="Path 371" d="M88.16,99.61a1.052,1.052,0,0,0-1.364-.593c-1.879.74-3.807,1.422-5.732,2.025a1.052,1.052,0,0,0-.737,1v4.062a1.052,1.052,0,1,0,2.1,0v-3.293c1.726-.559,3.451-1.176,5.136-1.841A1.051,1.051,0,0,0,88.16,99.61Z" transform="translate(-76.162 -89.281)" fill="rgba(0,0,0,0.7)"/>
    <path id="Path_372" data-name="Path 372" d="M171.257,88.315a1.052,1.052,0,0,0,.422-.088l.019-.008a1.052,1.052,0,1,0-.849-1.924l-.017.007a1.051,1.051,0,0,0,.425,2.014Z" transform="translate(-157.146 -77.787)" fill="rgba(0,0,0,0.7)"/>
    <path id="Path_373" data-name="Path 373" d="M311.24,345.7a1.052,1.052,0,0,0-1.456.305,25.6,25.6,0,0,1-3.022,3.775,26.868,26.868,0,0,1-3.017,2.684,1.052,1.052,0,1,0,1.275,1.673,28.986,28.986,0,0,0,3.254-2.895,27.677,27.677,0,0,0,3.271-4.087A1.052,1.052,0,0,0,311.24,345.7Z" transform="translate(-277.116 -311.786)" fill="rgba(0,0,0,0.7)"/>
    <path id="Path_374" data-name="Path 374" d="M277.149,432.11l-.06.036a1.052,1.052,0,1,0,1.054,1.82l.07-.041a1.052,1.052,0,1,0-1.063-1.815Z" transform="translate(-253.028 -389.783)" fill="rgba(0,0,0,0.7)"/>
    <path id="Path_375" data-name="Path 375" d="M128.739,162.355a3.5,3.5,0,0,0-4.9,0,3.391,3.391,0,0,0,0,4.837l6.3,6.21a3.5,3.5,0,0,0,4.9,0l13.144-12.965a3.391,3.391,0,0,0,0-4.836,3.5,3.5,0,0,0-4.9,0l-10.692,10.546Zm16.045-5.267a1.349,1.349,0,0,1,1.888,0,1.305,1.305,0,0,1,0,1.862l-13.144,12.964a1.349,1.349,0,0,1-1.888,0l-6.3-6.21a1.305,1.305,0,0,1,0-1.862,1.349,1.349,0,0,1,1.888,0l4.6,4.536a1.077,1.077,0,0,0,1.508,0Z" transform="translate(-114.507 -139.502)" fill="rgba(0,0,0,0.7)"/>
  </g>
</svg>
