<svg id="insurance" xmlns="http://www.w3.org/2000/svg" width="20" height="20" viewBox="0 0 20 20">
  <g id="Group_291" data-name="Group 291" transform="translate(7.485 16.633)">
    <path id="Path_389" data-name="Path 389" d="M10.684,23.367a1.684,1.684,0,1,1,1.684-1.684A1.685,1.685,0,0,1,10.684,23.367Zm0-2.525a.842.842,0,1,0,.842.842A.843.843,0,0,0,10.684,20.842Z" transform="translate(-9 -20)" fill="#fff"/>
  </g>
  <g id="Group_292" data-name="Group 292" transform="translate(13.306 16.633)">
    <path id="Path_390" data-name="Path 390" d="M17.684,23.367a1.684,1.684,0,1,1,1.684-1.684A1.685,1.685,0,0,1,17.684,23.367Zm0-2.525a.842.842,0,1,0,.842.842A.843.843,0,0,0,17.684,20.842Z" transform="translate(-16 -20)" fill="#fff"/>
  </g>
  <g id="Group_293" data-name="Group 293" transform="translate(4.364 6.664)">
    <path id="Path_391" data-name="Path 391" d="M8.828,8.842H5.671a.421.421,0,0,1,0-.842H8.828a.421.421,0,1,1,0,.842Z" transform="translate(-5.25 -8)" fill="#fff"/>
  </g>
  <g id="Group_294" data-name="Group 294" transform="translate(0 3.277)">
    <path id="Path_392" data-name="Path 392" d="M15.9,16.627H8.335a2.083,2.083,0,0,1-2-1.529L3.689,5.758a1.248,1.248,0,0,0-1.2-.916H.416A.421.421,0,0,1,.416,4H2.49a2.083,2.083,0,0,1,2,1.529l2.647,9.34a1.248,1.248,0,0,0,1.2.916H15.9a1.26,1.26,0,0,0,1.175-.835l.757-2.1a.416.416,0,0,1,.535-.251.422.422,0,0,1,.248.54l-.757,2.1A2.1,2.1,0,0,1,15.9,16.627Z" transform="translate(0 -4)" fill="#fff"/>
  </g>
  <g id="Group_295" data-name="Group 295" transform="translate(9.898)">
    <path id="Path_393" data-name="Path 393" d="M17.051,11.785a.408.408,0,0,1-.163-.034C16.687,11.668,12,9.642,12,5.5V1.984a.422.422,0,0,1,.286-.4L16.916.022a.422.422,0,0,1,.269,0l4.63,1.563a.422.422,0,0,1,.286.4V5.5c0,4.14-4.687,6.166-4.887,6.25A.422.422,0,0,1,17.051,11.785Zm-4.209-9.5V5.5c0,3.186,3.413,5.015,4.209,5.4.795-.385,4.209-2.221,4.209-5.4V2.286L17.051.865Z" transform="translate(-12 0)" fill="#fff"/>
  </g>
  <g id="Group_296" data-name="Group 296" transform="translate(12.424 3.741)">
    <path id="Path_394" data-name="Path 394" d="M17.1,8.288h-.023a.421.421,0,0,1-.306-.157l-1.684-2.1A.421.421,0,0,1,15.75,5.5l1.389,1.737,2.614-2.614a.421.421,0,0,1,.6.6L17.4,8.164a.416.416,0,0,1-.3.124Z" transform="translate(-15 -4.5)" fill="#fff"/>
  </g>
</svg>
