<svg id="telephone-handle-silhouette" xmlns="http://www.w3.org/2000/svg" width="26.999" height="27" viewBox="0 0 26.999 27">
  <path id="Path_3147" data-name="Path 3147" d="M26.952,20.92q-.115-.345-1.457-1.016-.364-.211-1.035-.575t-1.218-.671q-.547-.307-1.026-.594-.077-.058-.479-.336a5.39,5.39,0,0,0-.681-.412,1.256,1.256,0,0,0-.547-.134,1.591,1.591,0,0,0-.958.546A9.337,9.337,0,0,0,18.5,18.916a11.561,11.561,0,0,1-1.016,1.189,1.461,1.461,0,0,1-.882.547,1.3,1.3,0,0,1-.432-.1c-.172-.064-.3-.119-.393-.163s-.242-.134-.46-.269-.339-.208-.365-.221a20.152,20.152,0,0,1-4.506-3.336,20.141,20.141,0,0,1-3.337-4.507q-.019-.038-.221-.364t-.269-.46a4.155,4.155,0,0,1-.163-.393,1.3,1.3,0,0,1-.1-.431A1.461,1.461,0,0,1,6.9,9.53,11.549,11.549,0,0,1,8.093,8.514,9.333,9.333,0,0,0,9.282,7.459,1.592,1.592,0,0,0,9.828,6.5a1.252,1.252,0,0,0-.134-.547,5.33,5.33,0,0,0-.412-.681Q9,4.87,8.946,4.794q-.287-.479-.594-1.026T7.68,2.55q-.364-.671-.575-1.035Q6.434.173,6.089.058A1.074,1.074,0,0,0,5.686,0,6.318,6.318,0,0,0,4.334.192a7.594,7.594,0,0,0-1.314.4A5.141,5.141,0,0,0,.988,2.934,7.434,7.434,0,0,0,.01,6.5,7.405,7.405,0,0,0,.077,7.507a8.273,8.273,0,0,0,.24,1.1q.172.614.278.911t.393,1.064q.287.767.345.939A17.369,17.369,0,0,0,2.924,14.88a28.433,28.433,0,0,0,4.132,5.072,28.446,28.446,0,0,0,5.072,4.132,17.4,17.4,0,0,0,3.356,1.592q.173.057.939.345t1.064.393q.3.106.911.278a8.347,8.347,0,0,0,1.1.24,7.113,7.113,0,0,0,4.574-.911,5.137,5.137,0,0,0,2.339-2.033,7.552,7.552,0,0,0,.4-1.313,6.3,6.3,0,0,0,.192-1.352A1.069,1.069,0,0,0,26.952,20.92Z" transform="translate(-0.01)" fill="rgba(255,255,255,0.75)"/>
</svg>
