<svg id="American_Express" data-name="American Express" xmlns="http://www.w3.org/2000/svg" width="43" height="15" viewBox="0 0 43 15">
  <path id="Path_3213" data-name="Path 3213" d="M43.2,187.111h1.5l-.751-1.911Z" transform="translate(-39.514 -183.425)" fill="#2fabf7"/>
  <path id="Path_3214" data-name="Path 3214" d="M241.111,187.668a1.331,1.331,0,0,0-.546-.068H239.2v1.092h1.365a1.331,1.331,0,0,0,.546-.068.531.531,0,0,0,.2-.478A.379.379,0,0,0,241.111,187.668Z" transform="translate(-218.792 -185.621)" fill="#228fe0"/>
  <path id="Path_3215" data-name="Path 3215" d="M36.925,164.4v.819l-.41-.819H33.308v.819l-.41-.819H28.53a4.156,4.156,0,0,0-1.911.41v-.41H23.548v.41a1.968,1.968,0,0,0-1.3-.41H11.262l-.751,1.706L9.76,164.4H6.279v.819l-.41-.819H2.935L1.57,167.608,0,171.157H3.481l.41-1.092h.956l.41,1.092H9.214v-.819l.341.819h1.979l.341-.819v.819h9.487v-1.775H21.5c.137,0,.137,0,.137.2v1.5h4.914v-.41a4.089,4.089,0,0,0,1.843.41h2.048l.41-1.092h.956l.41,1.092h3.959v-1.024l.614,1.024H40V164.4Zm-23.07,5.733H12.7v-3.754l-1.638,3.754H10.033L8.4,166.379v3.754H6.075L5.6,169.11H3.276l-.41,1.092H1.57l2.048-4.846H5.324l1.911,4.573v-4.573H9.078l1.5,3.276,1.365-3.276h1.911Zm4.641-3.754H15.835v.887h2.594v.956H15.835v.956H18.5V170.2H14.675v-4.846H18.5Zm5.119,1.979a1.708,1.708,0,0,1,.2.887v.956H22.66v-.614a1.626,1.626,0,0,0-.2-.956c-.2-.2-.41-.2-.819-.2H20.408V170.2h-1.16v-4.846h2.594a2.617,2.617,0,0,1,1.365.2,1.163,1.163,0,0,1,.546,1.092,1.359,1.359,0,0,1-.819,1.3A1.3,1.3,0,0,1,23.616,168.359Zm2.048,1.775H24.5v-4.846h1.16Zm13.446,0H37.471l-2.184-3.617v3.617H32.967l-.41-1.024H30.168l-.41,1.092h-1.3a2.052,2.052,0,0,1-2.252-2.389,2.8,2.8,0,0,1,.614-1.911,2.151,2.151,0,0,1,1.706-.546h1.092v1.024H28.53a1.259,1.259,0,0,0-.887.273,1.6,1.6,0,0,0-.341,1.092,1.485,1.485,0,0,0,.341,1.16,1.088,1.088,0,0,0,.819.273h.478l1.57-3.754h1.706L34.127,170v-4.573h1.706l1.979,3.344v-3.344h1.16v4.71Z" transform="translate(0 -164.4)" fill="#0571c1"/>
  <g id="Group_340" data-name="Group 340" transform="translate(17.2 1.775)">
    <path id="Path_3216" data-name="Path 3216" d="M358.4,187.111h1.57l-.751-1.911Z" transform="translate(-345.022 -185.2)" fill="#228fe0"/>
    <path id="Path_3217" data-name="Path 3217" d="M203.375,281.09V277.2l-1.775,1.911Z" transform="translate(-201.6 -269.298)" fill="#228fe0"/>
  </g>
  <path id="Path_3218" data-name="Path 3218" d="M136.8,282.8v.887h2.525v.956H136.8v1.024h2.8l1.3-1.433-1.229-1.433Z" transform="translate(-125.129 -272.646)" fill="#2fabf7"/>
  <path id="SVGCleanerId_0" d="M237.433,282.8H236v1.229h1.5c.41,0,.683-.2.683-.614A.688.688,0,0,0,237.433,282.8Z" transform="translate(-215.865 -272.66)" fill="#228fe0"/>
  <path id="Path_3219" data-name="Path 3219" d="M144.371,263.471V260.4H141.5a2.239,2.239,0,0,0-1.433.41v-.41h-3.14a2.166,2.166,0,0,0-1.365.41v-.41h-5.529v.41a2.639,2.639,0,0,0-1.5-.41h-3.686v.41a2.59,2.59,0,0,0-1.57-.41h-4.1l-.956,1.024-.887-1.024H111.2v6.689h6.006l.956-1.024.887,1.024h3.686v-1.57h.478a4.152,4.152,0,0,0,1.57-.2v1.843h3.071v-1.775h.137c.2,0,.2,0,.2.2v1.57h9.283a2.676,2.676,0,0,0,1.57-.41v.41h2.935a3.066,3.066,0,0,0,1.638-.341h0a2.324,2.324,0,0,0,1.092-2.048A2.614,2.614,0,0,0,144.371,263.471Zm-21.159,1.092h-1.365V266.2h-2.184l-1.365-1.57-1.433,1.57h-4.5v-4.846h4.573l1.365,1.57,1.433-1.57h3.617c.887,0,1.911.273,1.911,1.57C125.192,264.29,124.237,264.564,123.213,264.564Zm6.825-.273a1.549,1.549,0,0,1,.2.887v.956h-1.16v-.614a1.524,1.524,0,0,0-.2-.956c-.137-.2-.41-.2-.819-.2H126.83v1.775h-1.16v-4.846h2.594a2.748,2.748,0,0,1,1.365.2,1.207,1.207,0,0,1,.614,1.092,1.359,1.359,0,0,1-.819,1.3A1.167,1.167,0,0,1,130.038,264.29Zm4.71-1.979h-2.662v.887h2.594v.956h-2.594v.956h2.662v1.024h-3.822v-4.846h3.822Zm2.867,3.822H135.43V265.11h2.184a.576.576,0,0,0,.478-.137.495.495,0,0,0,0-.683.577.577,0,0,0-.41-.137c-1.092-.068-2.389,0-2.389-1.5,0-.683.41-1.433,1.638-1.433h2.252v1.16h-2.116a1.012,1.012,0,0,0-.478.068c-.137.068-.137.2-.137.341,0,.2.137.273.273.341a.866.866,0,0,0,.41.068h.614a1.738,1.738,0,0,1,1.3.41,1.413,1.413,0,0,1,.341,1.024C139.389,265.656,138.775,266.133,137.614,266.133Zm5.87-.478a1.99,1.99,0,0,1-1.433.478h-2.184V265.11h2.184a.576.576,0,0,0,.478-.137.495.495,0,0,0,0-.683.577.577,0,0,0-.41-.137c-1.092-.068-2.389,0-2.389-1.5,0-.683.41-1.433,1.638-1.433h2.252v1.16h-2.048a1.012,1.012,0,0,0-.478.068c-.137.068-.137.2-.137.341,0,.2.068.273.273.341a.866.866,0,0,0,.41.068h.614a1.738,1.738,0,0,1,1.3.41.067.067,0,0,1,.068.068,1.567,1.567,0,0,1,.273.956A1.389,1.389,0,0,1,143.484,265.656Z" transform="translate(-101.713 -252.157)" fill="#0571c1"/>
  <path id="SVGCleanerId_1" d="M297.111,283.668a1.331,1.331,0,0,0-.546-.068H295.2v1.092h1.365a1.331,1.331,0,0,0,.546-.068.531.531,0,0,0,.2-.478A.379.379,0,0,0,297.111,283.668Z" transform="translate(-270.014 -273.392)" fill="#228fe0"/>
  <g id="Group_341" data-name="Group 341" transform="translate(17.2 1.775)">
    <path id="Path_3220" data-name="Path 3220" d="M241.111,187.668a1.331,1.331,0,0,0-.546-.068H239.2v1.092h1.365a1.331,1.331,0,0,0,.546-.068.531.531,0,0,0,.2-.478A.379.379,0,0,0,241.111,187.668Z" transform="translate(-235.992 -187.395)" fill="#228fe0"/>
    <path id="Path_3221" data-name="Path 3221" d="M358.4,187.111h1.57l-.751-1.911Z" transform="translate(-345.022 -185.2)" fill="#228fe0"/>
    <path id="Path_3222" data-name="Path 3222" d="M203.375,281.09V277.2l-1.775,1.911Z" transform="translate(-201.6 -269.298)" fill="#228fe0"/>
  </g>
  <g id="Group_342" data-name="Group 342" transform="translate(20.135 10.14)">
    <path id="SVGCleanerId_0_1_" d="M237.433,282.8H236v1.229h1.5c.41,0,.683-.2.683-.614A.688.688,0,0,0,237.433,282.8Z" transform="translate(-236 -282.8)" fill="#228fe0"/>
  </g>
  <g id="Group_343" data-name="Group 343" transform="translate(25.186 10.208)">
    <path id="SVGCleanerId_1_1_" d="M297.111,283.668a1.331,1.331,0,0,0-.546-.068H295.2v1.092h1.365a1.331,1.331,0,0,0,.546-.068.531.531,0,0,0,.2-.478A.379.379,0,0,0,297.111,283.668Z" transform="translate(-295.2 -283.6)" fill="#228fe0"/>
  </g>
  <g id="Group_344" data-name="Group 344">
    <path id="Path_3223" data-name="Path 3223" d="M122.8,266l-.956-1.024v1.16H119.6l-1.365-1.57-1.5,1.57h-4.5v-4.778H116.8l1.433,1.57.683-.819-1.706-1.706H111.2v6.689h6.006l1.024-1.024.887,1.024H122.8Z" transform="translate(-101.713 -252.157)" fill="#2fabf7"/>
    <path id="Path_3224" data-name="Path 3224" d="M13.992,171.089l-.887-.956H12.7v-.41L11.671,168.7l-.683,1.433h-.956L8.4,166.379v3.754H6.075L5.6,169.11H3.276L2.8,170.133H1.57l2.048-4.778H5.324l1.911,4.573v-4.573H8.259L7.3,164.4H6.279v.819l-.341-.819h-3L1.57,167.608,0,171.089H3.549l.41-1.024h.956l.478,1.024H9.214v-.819l.341.819h1.979l.341-.819v.819Z" transform="translate(0 -164.4)" fill="#2fabf7"/>
    <path id="Path_3225" data-name="Path 3225" d="M115.492,194.292,114.4,193.2l.819,1.775Z" transform="translate(-104.64 -190.733)" fill="#2fabf7"/>
  </g>
  <g id="Group_345" data-name="Group 345" transform="translate(6.757 0.068)">
    <path id="Path_3226" data-name="Path 3226" d="M201.429,264.552a2.5,2.5,0,0,0,1.092-1.843l-.956-.956a2.019,2.019,0,0,1,.137.683,1.389,1.389,0,0,1-.41,1.024,1.991,1.991,0,0,1-1.433.478h-2.184v-1.024h2.184a.576.576,0,0,0,.478-.137.495.495,0,0,0,0-.683.577.577,0,0,0-.41-.137c-1.092-.068-2.389,0-2.389-1.5,0-.683.41-1.3,1.433-1.433l-.751-.751c-.137.068-.2.137-.273.137V258h-3.14a2.166,2.166,0,0,0-1.365.41V258h-5.6v.41a2.639,2.639,0,0,0-1.5-.41h-3.686v.41a2.59,2.59,0,0,0-1.57-.41h-4.1l-.956,1.024L175.151,258H174.4l2.048,2.048,1.024-1.092h3.617c.887,0,1.911.273,1.911,1.57,0,1.365-.956,1.638-1.979,1.638h-1.365v1.024l1.024,1.024v-1.024h.341a4.152,4.152,0,0,0,1.57-.2v1.843h3.071v-1.775h.137c.2,0,.2,0,.2.2v1.57h9.283a2.676,2.676,0,0,0,1.57-.41v.41h2.935a2.708,2.708,0,0,0,1.638-.273ZM187.846,262.1a1.549,1.549,0,0,1,.2.887v.956h-1.16v-.614a1.524,1.524,0,0,0-.2-.956c-.137-.2-.41-.2-.819-.2h-1.229v1.775h-1.16v-4.846h2.594a2.748,2.748,0,0,1,1.365.2,1.207,1.207,0,0,1,.614,1.092,1.359,1.359,0,0,1-.819,1.3A1.167,1.167,0,0,1,187.846,262.1Zm4.71-1.979h-2.662V261h2.594v.956h-2.594v.956h2.662v1.024h-3.822v-4.846h3.822Zm2.867,3.822h-2.184v-1.024h2.184a.576.576,0,0,0,.478-.137.495.495,0,0,0,0-.683.577.577,0,0,0-.41-.137c-1.092-.068-2.389,0-2.389-1.5,0-.683.41-1.433,1.638-1.433h2.252v1.16h-2.116a1.012,1.012,0,0,0-.478.068c-.137.068-.137.2-.137.341,0,.2.137.273.273.341a.866.866,0,0,0,.41.068h.614a1.738,1.738,0,0,1,1.3.41,1.413,1.413,0,0,1,.341,1.024C197.2,263.46,196.583,263.938,195.422,263.938Z" transform="translate(-166.278 -250.03)" fill="#228fe0"/>
    <path id="Path_3227" data-name="Path 3227" d="M459.2,284.01c0,.2.068.273.273.341a.866.866,0,0,0,.41.068h.614a1.982,1.982,0,0,1,.956.2l-1.024-1.024h-.614a1.012,1.012,0,0,0-.478.068A.521.521,0,0,0,459.2,284.01Z" transform="translate(-426.779 -273.46)" fill="#228fe0"/>
    <path id="Path_3228" data-name="Path 3228" d="M431.2,240.4l.137.2h.068Z" transform="translate(-401.168 -233.961)" fill="#228fe0"/>
    <path id="Path_3229" data-name="Path 3229" d="M387.2,196.4l1.16,2.8V197.56Z" transform="translate(-360.922 -193.726)" fill="#228fe0"/>
    <path id="Path_3230" data-name="Path 3230" d="M93.806,170.114h.137c.137,0,.137,0,.137.2v1.5h4.914v-.41a4.089,4.089,0,0,0,1.843.41h2.048l.41-1.092h.956l.41,1.092h3.959v-.683l-.956-.956v.751h-2.321L105,169.841h-2.389l-.41,1.092h-1.3a2.052,2.052,0,0,1-2.252-2.389,2.8,2.8,0,0,1,.614-1.911,2.151,2.151,0,0,1,1.706-.546h1.092v1.024h-1.092a1.259,1.259,0,0,0-.887.273,1.6,1.6,0,0,0-.341,1.092,1.485,1.485,0,0,0,.341,1.16,1.088,1.088,0,0,0,.819.273h.478l1.57-3.754h.683l-.956-.956H100.9a4.156,4.156,0,0,0-1.911.41v-.41h-3v.41a1.968,1.968,0,0,0-1.3-.41H83.7l-.751,1.706L82.2,165.2h-3l.956.956h1.365l1.16,2.525.41.41,1.229-3H86.23v4.846H85.07v-3.754l-1.16,2.73,1.979,1.979h7.849Zm3.14-4.027h1.16v4.846h-1.16Zm-6.006,1.024H88.278V168h2.594v.956H88.278v.956H90.94v1.024H87.117v-4.846H90.94Zm1.911,3.754H91.69v-4.846h2.594a2.617,2.617,0,0,1,1.365.2,1.163,1.163,0,0,1,.546,1.092,1.359,1.359,0,0,1-.819,1.3.894.894,0,0,1,.546.41,1.707,1.707,0,0,1,.2.887v.956h-1.16v-.614a1.626,1.626,0,0,0-.2-.956c-.068-.137-.273-.137-.683-.137H92.851v1.706Z" transform="translate(-79.2 -165.2)" fill="#228fe0"/>
  </g>
</svg>
