<svg id="Bonus" xmlns="http://www.w3.org/2000/svg" width="64" height="15" viewBox="0 0 64 15">
  <g id="Group_347" data-name="Group 347">
    <path id="Path_3238" data-name="Path 3238" d="M924.412,644.5h-5.046v-4.888a.6.6,0,0,0-.648-.627h-2.185a.586.586,0,0,0-.648.627V644.5h-5.011a.586.586,0,0,0-.648.629v2.12a.586.586,0,0,0,.648.628h5.01l0,.015v4.843a.586.586,0,0,0,.648.628h2.185a.586.586,0,0,0,.648-.628v-4.858h5.046a.587.587,0,0,0,.648-.628v-2.12a.6.6,0,0,0-.648-.629Z" transform="translate(-910.224 -638.984)" fill="#ffca00" fill-rule="evenodd"/>
    <path id="Path_3239" data-name="Path 3239" d="M945.364,649.989a1.613,1.613,0,0,1-1.67,1.642A1.646,1.646,0,0,1,942,649.989V647.6a1.683,1.683,0,0,1,3.364,0v2.393Zm2.705,0V647.6a3.941,3.941,0,0,0-4.023-4.012,6.766,6.766,0,0,0-1.882.455c-.094,0-.165-.091-.165-.25v-3.9a.208.208,0,0,0-.235-.228h-2.21c-.165,0-.236.069-.236.228v13.9c0,.159.071.228.236.228h2c.329,0,.189-.456.4-.456a6.289,6.289,0,0,0,1.882.456,3.975,3.975,0,0,0,4.234-4.035Z" transform="translate(-922.566 -639.261)" fill="#00512b" fill-rule="evenodd"/>
    <path id="Path_3240" data-name="Path 3240" d="M961.585,653.176a1.681,1.681,0,1,1-3.362,0v-2.917a1.681,1.681,0,1,1,3.362,0v2.917Zm2.706,0v-2.917a4.393,4.393,0,0,0-8.774,0v2.917a4.393,4.393,0,0,0,8.774,0Z" transform="translate(-929.438 -642.34)" fill="#00512b" fill-rule="evenodd"/>
    <path id="Path_3241" data-name="Path 3241" d="M980.867,657.265h-2.235c-.165,0-.235-.071-.235-.235v-6.4a1.682,1.682,0,0,0-3.363,0v6.4c0,.164-.071.235-.235.235h-2.21c-.166,0-.236-.071-.236-.235v-10.3c0-.164.07-.235.236-.235h2c.354,0,.212.47.4.47a6.37,6.37,0,0,1,1.928-.47,4.014,4.014,0,0,1,4.186,4.14v6.4c0,.164-.07.235-.235.235Z" transform="translate(-936.579 -642.502)" fill="#00512b" fill-rule="evenodd"/>
    <path id="Path_3242" data-name="Path 3242" d="M997.859,657.265h-2c-.329,0-.188-.47-.4-.47a6.37,6.37,0,0,1-1.906.47,4.014,4.014,0,0,1-4.21-4.164v-6.373c0-.164.07-.235.236-.235h2.234a.211.211,0,0,1,.235.235V653.1a1.639,1.639,0,0,0,1.669,1.694,1.672,1.672,0,0,0,1.694-1.694v-6.373c0-.164.07-.235.236-.235h2.211a.212.212,0,0,1,.235.235v10.3c0,.164-.071.235-.235.235Z" transform="translate(-943.787 -642.502)" fill="#00512b" fill-rule="evenodd"/>
    <path id="Path_3243" data-name="Path 3243" d="M1013.475,646.9a3.636,3.636,0,0,1,1.387,1.928.22.22,0,0,1-.14.188l-1.929.941a.25.25,0,0,1-.118.024c-.095,0-.118-.047-.188-.142-.495-.729-.752-1.341-1.717-1.341h-.682c-.847,0-1.294.3-1.294.893,0,.964,1.294.754,3.223,1.27,1.9.518,2.8,1.389,2.8,2.941,0,2.21-1.577,3.74-4.046,3.74h-.682a3.98,3.98,0,0,1-3.058-1.152,3.346,3.346,0,0,1-1.011-1.624c0-.071.047-.117.14-.164l1.93-.941a.207.207,0,0,1,.118-.024c.07,0,.118.071.187.165.47.776.775,1.341,1.694,1.341h.682c.847,0,1.364-.424,1.364-1.012,0-.94-1.317-.729-3.245-1.223-1.882-.472-2.752-1.363-2.752-2.964a3.645,3.645,0,0,1,3.952-3.646h.682a4.349,4.349,0,0,1,2.705.8Z" transform="translate(-950.863 -642.34)" fill="#00512b" fill-rule="evenodd"/>
  </g>
</svg>
