<svg id="Garanti" xmlns="http://www.w3.org/2000/svg" xmlns:xlink="http://www.w3.org/1999/xlink" width="84" height="15" viewBox="0 0 84 15">
  <defs>
    <clipPath id="clip-path">
      <path id="Path_3257" data-name="Path 3257" d="M68.222,431.671a2.6,2.6,0,0,1-.478.918,7.928,7.928,0,0,0-2.234-3.931,2.9,2.9,0,0,1,2.1.985A1.986,1.986,0,0,1,68.222,431.671Zm-3.034-2.782a7.508,7.508,0,0,0-.078,1.043v.2c0,.763-.01,2.8.732,3.535a.888.888,0,0,0,.654.27h.019c.029,0,.722.1.907-.966C67.334,432.627,66.622,430.029,65.188,428.889Zm-1.1-.029c-.38-.116-1.844-.406-4.038,1-1.1.715-1.668,1.526-1.61,2.337a2.494,2.494,0,0,0,1.522,1.9A11.584,11.584,0,0,0,64.086,428.86Zm-.449,5.67Zm.712-5.235a13.093,13.093,0,0,1-2.478,3.921,9.994,9.994,0,0,1-1.492,1.352c.1.319.517,1.507,1.463,1.507,1.1,0,1.775-1.516,1.785-1.536v-.01h0A9.026,9.026,0,0,0,64.35,429.294Zm3.9-4.443a1.443,1.443,0,0,0-.429-.753,7.611,7.611,0,0,1-.488,1.265,8,8,0,0,1-2.029,2.6,2.388,2.388,0,0,0,2.478-1.323A2.422,2.422,0,0,0,68.251,424.852Zm-1.6-2.444a.875.875,0,0,0-.673.232c-.81.7-.917,2.762-.956,3.535l-.01.145a9.192,9.192,0,0,0,.039,1.333,7.984,7.984,0,0,0,2.478-3.912C67.432,422.524,66.681,422.417,66.652,422.408ZM64.389,426.3c-.049-2.849-1-4.839-2.449-5.187a1.1,1.1,0,0,0-.858.116,2.28,2.28,0,0,0-.81,1.227,9.958,9.958,0,0,1,3.258,3.284,9.408,9.408,0,0,1,.751,1.487A4.046,4.046,0,0,0,64.389,426.3Zm-4.507-3.419a2.162,2.162,0,0,0-1.551,1.922,2.407,2.407,0,0,0,.556,1.507,3.991,3.991,0,0,0,1.61,1.2c2.078.879,3.248.338,3.531.164A9.913,9.913,0,0,0,59.882,422.881Z" transform="translate(-58.33 -421.075)" fill="#497d22"/>
    </clipPath>
  </defs>
  <path id="Path_3244" data-name="Path 3244" d="M698.5,459.757l-.068-.029a1.807,1.807,0,0,0,.956-1.687,2.269,2.269,0,0,0-2.517-2.2h-4.224a.169.169,0,0,0-.166.163v8.109a.169.169,0,0,0,.166.163h4.038c2.019,0,3.092-.853,3.092-2.531a2.04,2.04,0,0,0-1.278-1.984m-4.438-2.693h2.507c.9,0,1.395.249,1.395.968,0,.815-.468,1.227-1.395,1.237h-2.507a.17.17,0,0,1-.166-.163v-1.879a.163.163,0,0,1,.166-.163m2.536,5.991h-2.536a.163.163,0,0,1-.166-.163v-2.243a.169.169,0,0,1,.166-.163h2.565c1.21.019,1.727.355,1.727,1.294,0,.824-.527,1.275-1.756,1.275" transform="translate(-632.226 -452.501)" fill="#002e6d"/>
  <path id="Path_3245" data-name="Path 3245" d="M776.715,456.025,773.9,461.3a.167.167,0,0,1-.293,0l-2.819-5.272a.161.161,0,0,0-.146-.086h-1.366a.117.117,0,0,0-.107.173l4.438,8.166a.167.167,0,0,0,.293,0l4.438-8.166a.117.117,0,0,0-.107-.173h-1.375a.158.158,0,0,0-.137.086" transform="translate(-701.706 -452.593)" fill="#002e6d"/>
  <path id="Path_3246" data-name="Path 3246" d="M606,459.757l-.068-.029a1.807,1.807,0,0,0,.956-1.687,2.269,2.269,0,0,0-2.517-2.2h-4.224a.169.169,0,0,0-.166.163v8.109a.17.17,0,0,0,.166.163h4.038c2.019,0,3.092-.853,3.092-2.531A2.027,2.027,0,0,0,606,459.757m-4.438-2.693h2.507c.9,0,1.395.249,1.395.968,0,.815-.468,1.227-1.395,1.237h-2.507a.17.17,0,0,1-.166-.163v-1.888a.168.168,0,0,1,.166-.153m2.546,5.991h-2.546a.163.163,0,0,1-.166-.163v-2.243a.163.163,0,0,1,.166-.163h2.565c1.21.019,1.727.355,1.727,1.294,0,.824-.527,1.275-1.746,1.275" transform="translate(-548.519 -452.501)" fill="#002e6d"/>
  <path id="Path_3247" data-name="Path 3247" d="M847.422,451.516l2.819-5.365a.166.166,0,0,1,.293,0l2.819,5.365a.181.181,0,0,0,.146.088h1.366a.119.119,0,0,0,.107-.176l-4.439-8.311a.166.166,0,0,0-.293,0l-4.438,8.311a.119.119,0,0,0,.107.176h1.375a.18.18,0,0,0,.137-.088" transform="translate(-770.989 -440.923)" fill="#002e6d"/>
  <path id="Path_3248" data-name="Path 3248" d="M546.349,456.768a.828.828,0,0,0-1.414-.585.717.717,0,0,0-.214.361.828.828,0,0,0-.029.224.8.8,0,0,0,.244.585.771.771,0,0,0,.585.244.76.76,0,0,0,.585-.244.8.8,0,0,0,.244-.585" transform="translate(-498.45 -452.63)" fill="#fff"/>
  <path id="Path_3249" data-name="Path 3249" d="M545.028,485.473a5.706,5.706,0,0,1-.117-1.6v-3.4c0-.712.068-1.356-.6-1.356a3.166,3.166,0,0,0-1.141.419c.263.176.361.517.361,1.268v3.082a4.637,4.637,0,0,1-.117,1.59Z" transform="translate(-497.07 -473.638)" fill="#fff"/>
  <path id="Path_3250" data-name="Path 3250" d="M496.421,471.55a1.6,1.6,0,0,1-1.385-.585,2.613,2.613,0,0,1-.3-1.463v-3.463h-.966v-.761l.966-.117.107-1.5,1.288-.1v1.61h1.59v.858h-1.59v3.512c0,.663.283,1,.819,1a2.106,2.106,0,0,0,1.034-.273l.117.819a3.621,3.621,0,0,1-1.678.468" transform="translate(-452.381 -459.569)" fill="#fff"/>
  <path id="Path_3251" data-name="Path 3251" d="M270.464,483.706a1.963,1.963,0,0,1-1.229.468c-.634,0-1.024-.273-1.024-.937,0-.985.917-1.639,2.253-1.288v1.756Zm1.512,1.307a6.357,6.357,0,0,1-.117-1.434v-2.673c0-1.736-.78-2.3-2.458-2.3a4.139,4.139,0,0,0-1.8.41l-.166.878a4.121,4.121,0,0,1,1.9-.429c1.19,0,1.132.936,1.132,1.834-1.639-.5-3.707.127-3.668,2.127a1.745,1.745,0,0,0,1.892,1.746,2.362,2.362,0,0,0,1.795-.771l.107.615Z" transform="translate(-246.984 -473.179)" fill="#fff"/>
  <path id="Path_3252" data-name="Path 3252" d="M432.257,484.829a3.378,3.378,0,0,0,.058-.761v-3.385c0-.839-.254-1.229-.878-1.229a2.569,2.569,0,0,0-1.483.732v3.082c0,.351.01.683.019.946a3.679,3.679,0,0,0,.059.6H428.5a8.9,8.9,0,0,0,.068-1.5v-3.19c0-.78-.127-1.093-.361-1.249a2.97,2.97,0,0,1,1.122-.41c.449,0,.556.4.566.9a3.019,3.019,0,0,1,2.009-.966,1.67,1.67,0,0,1,1.531.751,1.489,1.489,0,0,1,.166.449,5.084,5.084,0,0,1,.088,1.044v2.6a6.49,6.49,0,0,0,.1,1.58Z" transform="translate(-393.059 -472.993)" fill="#fff"/>
  <path id="Path_3253" data-name="Path 3253" d="M333.335,479.614c-.107-.01-.2-.01-.351-.01a1.8,1.8,0,0,0-1.317.722v3.141a7.244,7.244,0,0,0,.078,1.463h-1.532a2.783,2.783,0,0,0,.049-.351c.02-.293.02-.683.02-1.093v-3.248c0-.712-.117-1.1-.361-1.249a2.938,2.938,0,0,1,1.122-.41c.468,0,.556.429.556.907a1.887,1.887,0,0,1,1.59-.985,1.31,1.31,0,0,1,.341.039Z" transform="translate(-304.105 -473.085)" fill="#fff"/>
  <path id="Path_3254" data-name="Path 3254" d="M370.477,485.013a5.307,5.307,0,0,1-.117-1.434v-2.673c0-1.736-.771-2.3-2.458-2.3a4.315,4.315,0,0,0-1.814.4l-.166.878a3.43,3.43,0,0,1,.683-.273,4.652,4.652,0,0,1,1.219-.166c1.19,0,1.132.936,1.132,1.834-1.629-.5-3.707.127-3.668,2.126a1.746,1.746,0,0,0,1.892,1.746,2.419,2.419,0,0,0,1.8-.771,3.549,3.549,0,0,0,.1.615h1.395Zm-1.522-1.307a1.963,1.963,0,0,1-1.229.468c-.634,0-1.024-.273-1.024-.937,0-.985.917-1.629,2.253-1.288v1.756Z" transform="translate(-336.114 -473.179)" fill="#fff"/>
  <path id="Path_3255" data-name="Path 3255" d="M184.842,451.735a5.885,5.885,0,0,0-2.185-.413,3.125,3.125,0,0,0-2.341.979,3.458,3.458,0,0,0-.946,2.505,3.854,3.854,0,0,0,.849,2.63,2.857,2.857,0,0,0,2.3.979,3.531,3.531,0,0,0,1.317-.211v-2.169c0-.154,0-.288-.01-.413h-1.18a6.026,6.026,0,0,0-.127-1.017l2.868.1a4.95,4.95,0,0,0-.117,1.44v1.113a7.421,7.421,0,0,0,.117,1.574,7.86,7.86,0,0,1-2.985.6,4.729,4.729,0,0,1-3.453-1.21,4.38,4.38,0,0,1-1.288-3.254,4.577,4.577,0,0,1,1.424-3.417,4.9,4.9,0,0,1,3.57-1.305,6.071,6.071,0,0,1,2.409.394l-.224,1.094" transform="translate(-166.21 -447.447)" fill="#fff"/>
  <g id="Group_354" data-name="Group 354" transform="translate(0 0)">
    <g id="Group_353" data-name="Group 353" transform="translate(0 0)">
      <g id="Group_348" data-name="Group 348">
        <path id="SVGID" d="M68.222,431.671a2.6,2.6,0,0,1-.478.918,7.928,7.928,0,0,0-2.234-3.931,2.9,2.9,0,0,1,2.1.985A1.986,1.986,0,0,1,68.222,431.671Zm-3.034-2.782a7.508,7.508,0,0,0-.078,1.043v.2c0,.763-.01,2.8.732,3.535a.888.888,0,0,0,.654.27h.019c.029,0,.722.1.907-.966C67.334,432.627,66.622,430.029,65.188,428.889Zm-1.1-.029c-.38-.116-1.844-.406-4.038,1-1.1.715-1.668,1.526-1.61,2.337a2.494,2.494,0,0,0,1.522,1.9A11.584,11.584,0,0,0,64.086,428.86Zm-.449,5.67Zm.712-5.235a13.093,13.093,0,0,1-2.478,3.921,9.994,9.994,0,0,1-1.492,1.352c.1.319.517,1.507,1.463,1.507,1.1,0,1.775-1.516,1.785-1.536v-.01h0A9.026,9.026,0,0,0,64.35,429.294Zm3.9-4.443a1.443,1.443,0,0,0-.429-.753,7.611,7.611,0,0,1-.488,1.265,8,8,0,0,1-2.029,2.6,2.388,2.388,0,0,0,2.478-1.323A2.422,2.422,0,0,0,68.251,424.852Zm-1.6-2.444a.875.875,0,0,0-.673.232c-.81.7-.917,2.762-.956,3.535l-.01.145a9.192,9.192,0,0,0,.039,1.333,7.984,7.984,0,0,0,2.478-3.912C67.432,422.524,66.681,422.417,66.652,422.408ZM64.389,426.3c-.049-2.849-1-4.839-2.449-5.187a1.1,1.1,0,0,0-.858.116,2.28,2.28,0,0,0-.81,1.227,9.958,9.958,0,0,1,3.258,3.284,9.408,9.408,0,0,1,.751,1.487A4.046,4.046,0,0,0,64.389,426.3Zm-4.507-3.419a2.162,2.162,0,0,0-1.551,1.922,2.407,2.407,0,0,0,.556,1.507,3.991,3.991,0,0,0,1.61,1.2c2.078.879,3.248.338,3.531.164A9.913,9.913,0,0,0,59.882,422.881Z" transform="translate(-58.33 -421.075)" fill="#497d22"/>
      </g>
      <g id="Group_352" data-name="Group 352">
        <g id="Group_351" data-name="Group 351">
          <g id="Group_350" data-name="Group 350" clip-path="url(#clip-path)">
            <g id="Group_349" data-name="Group 349" transform="translate(-0.634 -5.496)">
              <path id="Path_3256" data-name="Path 3256" d="M58.538,388.623c3.756.029,6.789-5.621,6.789-12.634s-3.053-12.711-6.809-12.749-6.789,5.621-6.789,12.634S54.782,388.594,58.538,388.623Z" transform="translate(-51.729 -363.24)" fill="#497d22"/>
            </g>
          </g>
        </g>
      </g>
    </g>
  </g>
</svg>
