<svg id="Mastercard" xmlns="http://www.w3.org/2000/svg" width="25" height="15" viewBox="0 0 25 15">
  <path id="Path_3264" data-name="Path 3264" d="M948.532,599.39l.392-.01.387-.028.379-.048.377-.066.367-.083.362-.1.354-.119.346-.134.338-.152.328-.164.318-.182.31-.195.3-.21.287-.223.277-.235.264-.25.254-.261.238-.273.226-.283.213-.293.2-.306.185-.314.167-.324.154-.334.136-.342.121-.349.1-.357.085-.362.067-.372.049-.374.028-.382.01-.387-.01-.385-.028-.38-.049-.374-.067-.367-.085-.362-.1-.354-.121-.349-.136-.339-.154-.331-.167-.324-.185-.311-.2-.306-.213-.294-.226-.281-.238-.273-.254-.26-.264-.248-.277-.235-.287-.223-.3-.21-.31-.195-.318-.18-.328-.164-.338-.152-.346-.134-.354-.119-.362-.1-.367-.083-.377-.066-.379-.048-.387-.028-.392-.01-.39.01-.387.028-.38.048-.374.066-.367.083-.362.1-.351.119-.346.134-.336.152-.326.164-.318.18-.308.195-.3.21-.287.223-.274.235-.264.248-.251.26-.238.273-.226.281-.21.294-.2.306-.182.311-.169.324-.151.331-.136.339-.118.349-.1.354-.085.362-.067.367-.049.374-.028.38-.01.385.01.387.028.382.049.374.067.372.085.362.1.357.118.349.136.342.151.334.169.324.182.314.2.306.21.293.226.283.238.273.251.261.264.25.274.235.287.223.3.21.308.195.318.182.326.164.336.152.346.134.351.119.362.1.367.083.374.066.38.048.387.028.39.01Z" transform="translate(-931.147 -584.39)" fill="#fea402" fill-rule="evenodd"/>
  <path id="Path_3265" data-name="Path 3265" d="M873.45,599.39l.39-.01.387-.028.38-.048.374-.066.367-.083.362-.1.351-.119.346-.134.336-.152.326-.164.318-.182.308-.195.3-.21.287-.223.274-.235.264-.25.251-.261.238-.273.226-.283.21-.293.2-.306.182-.314.169-.324.151-.334.136-.342.118-.349.1-.357.085-.362.067-.372.049-.374.028-.382.01-.387-.01-.385-.028-.38-.049-.374-.067-.367-.085-.362-.1-.354-.118-.349-.136-.339-.151-.331-.169-.324-.182-.311-.2-.306-.21-.294-.226-.281-.238-.273-.251-.26-.264-.248-.274-.235-.287-.223-.3-.21-.308-.195-.318-.18-.326-.164-.336-.152-.346-.134-.351-.119-.362-.1-.367-.083-.374-.066-.38-.048-.387-.028-.39-.01-.392.01-.387.028-.38.048-.377.066-.367.083-.362.1-.354.119-.346.134-.338.152-.328.164-.318.18-.31.195-.3.21-.287.223-.277.235-.264.248-.254.26-.238.273-.226.281-.213.294-.2.306-.185.311-.167.324-.154.331-.136.339-.12.349-.1.354-.085.362-.067.367-.049.374-.028.38-.01.385.01.387.028.382.049.374.067.372.085.362.1.357.12.349.136.342.154.334.167.324.185.314.2.306.213.293.226.283.238.273.254.261.264.25.277.235.287.223.3.21.31.195.318.182.328.164.338.152.346.134.354.119.362.1.367.083.377.066.38.048.387.028.392.01Z" transform="translate(-865.835 -584.39)" fill="#d90016" fill-rule="evenodd"/>
  <path id="Path_3266" data-name="Path 3266" d="M952.824,603.236h4.038v-.413h-3.69l-.349.413Z" transform="translate(-941.235 -600.32)" fill="#fea402" fill-rule="evenodd"/>
  <path id="Path_3267" data-name="Path 3267" d="M948.367,610h4.643v-.413h-4.4l-.244.413Z" transform="translate(-937.378 -606.211)" fill="#fea402" fill-rule="evenodd"/>
  <path id="Path_3268" data-name="Path 3268" d="M945.043,616.739h5.095v-.413h-4.915l-.18.413Z" transform="translate(-934.501 -612.05)" fill="#fea402" fill-rule="evenodd"/>
  <path id="Path_3269" data-name="Path 3269" d="M942.758,623.5h5.4v-.413h-5.277l-.128.413Z" transform="translate(-932.523 -617.906)" fill="#fea402" fill-rule="evenodd"/>
  <path id="Path_3270" data-name="Path 3270" d="M943.264,656.174H948.5v-.413h-5.366l.128.413Z" transform="translate(-932.85 -646.204)" fill="#fea402" fill-rule="evenodd"/>
  <path id="Path_3271" data-name="Path 3271" d="M945.708,662.935h4.851v-.413h-5.043l.192.413Z" transform="translate(-934.91 -652.06)" fill="#fea402" fill-rule="evenodd"/>
  <path id="Path_3272" data-name="Path 3272" d="M949.287,669.677h4.307v-.413h-4.567l.259.413Z" transform="translate(-937.95 -657.899)" fill="#fea402" fill-rule="evenodd"/>
  <path id="Path_3273" data-name="Path 3273" d="M954.149,676.422h3.559v-.415h-3.92l.362.415Z" transform="translate(-942.069 -663.771)" fill="#fea402" fill-rule="evenodd"/>
  <path id="Path_3274" data-name="Path 3274" d="M941.417,630.243H947v-.413H941.5l-.079.413Z" transform="translate(-931.363 -623.746)" fill="#fea402" fill-rule="evenodd"/>
  <path id="Path_3275" data-name="Path 3275" d="M966.5,649.431h2.131v-.413h-2.054l-.077.413Z" transform="translate(-953.066 -640.364)" fill="#fea402" fill-rule="evenodd"/>
  <path id="Path_3276" data-name="Path 3276" d="M967.744,642.673h1.961v-.415h-1.885l-.077.415Z" transform="translate(-954.145 -634.508)" fill="#fea402" fill-rule="evenodd"/>
  <path id="Path_3277" data-name="Path 3277" d="M940.378,642.257h.554v.415H940.4l-.026-.415Z" transform="translate(-930.421 -634.508)" fill="#fea402" fill-rule="evenodd"/>
  <path id="Path_3278" data-name="Path 3278" d="M919.057,634.461l-.036,0-.036-.005-.033-.005-.033-.005-.031-.005-.033-.005-.033-.005-.036-.005-.036-.005-.041,0-.046,0-.049,0h-.054l-.059,0-.067.005-.074.005-.051.008-.049.008-.044.015-.038.015-.036.018-.033.02-.026.026-.023.023-.015.028-.013.028-.005.031v.031l.008.033.01.033.021.033.026.033.051.049.062.038.072.033.077.028.082.026.085.028.085.031.082.033.077.044.072.054.064.064.054.079.041.1.026.115.01.138-.01.162-.018.12-.031.105-.041.1-.051.085-.059.074-.067.064-.072.056-.079.049-.082.038-.085.033-.087.026-.09.021-.087.015-.085.008-.085.005-.08,0h-.11l-.1,0h-.09l-.085,0-.077,0-.069-.005-.062-.005-.059-.008-.054-.005-.049-.01-.049-.008-.044-.013-.044-.01-.041-.015-.041-.015-.044-.015.115-.567.023.005.028.008.036.01.044.01.046.01.051.01.056.013.062.01.064.01.067.01.069.008.072.008.074,0,.074,0h.074l.074,0,.074-.015.059-.021.046-.028.036-.036.026-.036.021-.041.013-.041.01-.038.005-.074-.023-.064-.044-.051-.064-.044-.077-.038-.09-.038-.1-.036-.1-.041-.1-.046-.1-.054-.09-.067-.082-.079-.064-.1-.046-.115-.023-.138,0-.164.013-.1.018-.095.026-.087.031-.082.041-.077.046-.067.054-.064.064-.056.074-.049.082-.041.092-.038.1-.028.115-.023.126-.018.138-.01.151,0h.095l.087,0,.08,0,.072,0,.064.005.059.005.051.005.046.005.044.005.036.008.033.005.031.005.026.005.023,0,.023.005.021,0-.131.579Z" transform="translate(-910.089 -627.215)" fill="#fff" fill-rule="evenodd"/>
  <path id="Path_3279" data-name="Path 3279" d="M919.057,634.461h0l-.036,0-.036-.005-.033-.005-.033-.005-.031-.005-.033-.005-.033-.005-.036-.005-.036-.005-.041,0-.046,0-.049,0h-.054l-.059,0-.067.005-.074.005h0l-.051.008-.049.008-.044.015-.038.015-.036.018-.033.02-.026.026-.023.023-.015.028-.013.028-.005.031v.031l.008.033.01.033.021.033.026.033h0l.051.049.062.038.072.033.077.028.082.026.085.028.085.031.082.033.077.044.072.054.064.064.054.079.041.1.026.115.01.138-.01.162h0l-.018.12-.031.105-.041.1-.051.085-.059.074-.067.064-.072.056-.079.049-.082.038-.085.033-.087.026-.09.021-.087.015-.085.008-.085.005-.08,0h-.11l-.1,0h-.09l-.085,0-.077,0-.069-.005-.062-.005-.059-.008-.054-.005-.049-.01-.049-.008-.044-.013-.044-.01-.041-.015-.041-.015-.044-.015.115-.567h0l.023.005.028.008.036.01.044.01.046.01.051.01.056.013.062.01.064.01.067.01.069.008.072.008.074,0,.074,0h.074l.074,0h0l.074-.015.059-.021.046-.028.036-.036.026-.036.021-.041.013-.041.01-.038h0l.005-.074-.023-.064-.044-.051-.064-.044-.077-.038-.09-.038-.1-.036-.1-.041-.1-.046-.1-.054-.09-.067-.082-.079-.064-.1-.046-.115-.023-.138,0-.164h0l.013-.1.018-.095.026-.087.031-.082.041-.077.046-.067.054-.064.064-.056.074-.049.082-.041.092-.038.1-.028.115-.023.126-.018.138-.01.151,0h.095l.087,0,.08,0,.072,0,.064.005.059.005.051.005.046.005.044.005.036.008.033.005.031.005.026.005.023,0,.023.005.021,0-.131.579" transform="translate(-910.089 -627.215)" fill="none" stroke="#fff" stroke-miterlimit="2.613" stroke-width="0.216"/>
  <path id="Path_3280" data-name="Path 3280" d="M934.028,629.641h.71l-.105.62h.428l-.092.579-.451-.013-.246,1.431,0,.051.013.044.026.033.033.028.046.018.051.015.056.01.062.005.056,0,.051-.005.046-.008.041-.01.033-.01.023-.008.015-.005.005,0-.09.477-.018.013-.018.01-.018.01-.018.01-.018.008-.021.008-.023.008-.023.008-.026.008-.026.005-.031.005-.031.005-.033.005L934.4,633l-.041.005-.044.005h-.195l-.1-.008-.09-.01-.082-.015-.069-.018-.059-.023-.049-.026-.044-.031-.033-.033-.026-.036-.018-.044-.013-.044-.008-.049,0-.054v-.056l.008-.059.008-.064.49-2.8Z" transform="translate(-924.487 -623.603)" fill="#fff" fill-rule="evenodd"/>
  <path id="Path_3281" data-name="Path 3281" d="M934.028,629.641h.71l-.105.62h.428l-.092.579-.451-.013-.246,1.431h0l0,.051.013.044.026.033.033.028.046.018.051.015.056.01.062.005h0l.056,0,.051-.005.046-.008.041-.01.033-.01.023-.008.015-.005.005,0-.09.477h0l-.018.013-.018.01-.018.01-.018.01-.018.008-.021.008-.023.008-.023.008-.026.008-.026.005-.031.005-.031.005-.033.005L934.4,633l-.041.005-.044.005h-.195l-.1-.008-.09-.01-.082-.015-.069-.018-.059-.023-.049-.026-.044-.031-.033-.033-.026-.036-.018-.044-.013-.044-.008-.049,0-.054v-.056l.008-.059.008-.064.49-2.8" transform="translate(-924.487 -623.603)" fill="none" stroke="#fff" stroke-miterlimit="2.613" stroke-width="0.216"/>
  <path id="Path_3282" data-name="Path 3282" d="M944.262,635.415l-.008.044,0,.046.005.049.01.049.018.049.02.046.028.049.031.044.036.044.038.038.041.038.046.031.046.028.051.023.051.018.051.01.067.01.064.008.067.008.067.005.067,0h.069l.067,0,.069-.005.069-.01.069-.013.072-.015.069-.023.072-.028.074-.031.072-.041.074-.044-.1.631-.041.021-.041.021-.041.015-.038.015-.039.013-.041.013-.041.01-.044.008-.046.008-.051.005-.054.005-.059.005-.067,0h-.069l-.079,0H944.9l-.126,0-.128-.013-.128-.018-.128-.031-.126-.038-.12-.049-.115-.064-.108-.074-.1-.087-.087-.105-.074-.118-.062-.136-.044-.151-.028-.172-.008-.19.013-.21.01-.082.015-.095.021-.1.028-.108.038-.11.046-.11.059-.113.072-.108.082-.1.1-.1.113-.087.128-.077.149-.064.167-.046.185-.031.208-.01.1,0,.105.01.105.018.105.026.1.039.1.046.092.062.085.072.077.087.064.1.051.118.036.136.021.154,0,.174-.018.195-.038.215-.013.156h-1.869l.118-.505H945.3l.005-.064,0-.062-.005-.056-.01-.051-.018-.049-.018-.044-.026-.038-.026-.036-.031-.031-.033-.026-.038-.023-.038-.021-.041-.015-.041-.01-.044-.008-.046-.005-.049,0-.046.008-.044.01-.044.015-.043.021-.039.023-.038.028-.033.031-.033.036-.031.038-.028.041-.023.044-.023.046-.018.051-.015.051-.01.054-.1.531Z" transform="translate(-933.151 -627.215)" fill="#fff" fill-rule="evenodd"/>
  <path id="Path_3283" data-name="Path 3283" d="M944.262,635.415h0l-.008.044,0,.046.005.049.01.049.018.049.02.046.028.049.031.044.036.044.038.038.041.038.046.031.046.028.051.023.051.018.051.01h0l.067.01.064.008.067.008.067.005.067,0h.069l.067,0,.069-.005.069-.01.069-.013.072-.015.069-.023.072-.028.074-.031.072-.041.074-.044-.1.631h0l-.041.021-.041.021-.041.015-.038.015-.039.013-.041.013-.041.01-.044.008-.046.008-.051.005-.054.005-.059.005-.067,0h-.069l-.079,0H944.9l-.126,0-.128-.013-.128-.018-.128-.031-.126-.038-.12-.049-.115-.064-.108-.074-.1-.087-.087-.105-.074-.118-.062-.136-.044-.151-.028-.172-.008-.19.013-.21h0l.01-.082.015-.095.021-.1.028-.108.038-.11.046-.11.059-.113.072-.108.082-.1.1-.1.113-.087.128-.077.149-.064.167-.046.185-.031.208-.01h0l.1,0,.105.01.105.018.105.026.1.039.1.046.092.062.085.072.077.087.064.1.051.118.036.136.021.154,0,.174-.018.195-.038.215-.013.156h-1.869l.118-.505H945.3l.005-.064,0-.062-.005-.056-.01-.051-.018-.049-.018-.044-.026-.038-.026-.036-.031-.031-.033-.026-.038-.023-.038-.021-.041-.015-.041-.01-.044-.008-.046-.005h0l-.049,0-.046.008-.044.01-.044.015-.043.021-.039.023-.038.028-.033.031-.033.036-.031.038-.028.041-.023.044-.023.046-.018.051-.015.051-.01.054-.1.531" transform="translate(-933.151 -627.215)" fill="none" stroke="#fff" stroke-miterlimit="2.613" stroke-width="0.216"/>
  <path id="Path_3284" data-name="Path 3284" d="M977.423,629.681l-.033-.018-.033-.015-.036-.018-.038-.018-.039-.015-.044-.015-.044-.015-.046-.015-.049-.013-.049-.01-.054-.01-.054-.008-.059-.005-.059-.005h-.19l-.067.005-.069.008-.072.013-.072.021-.072.028-.072.036-.072.046-.069.056-.067.067-.064.082-.062.095-.056.113-.054.128-.049.144-.041.164-.015.092-.01.09-.005.09,0,.087.008.087.018.082.023.077.028.077.038.069.046.067.054.059.062.054.069.046.08.038.087.033.1.023.033.008.038.008.046.005.051.005.056.005h.123l.064-.005.067-.008.067-.013.064-.018.064-.021.064-.028.059-.033.054-.041.051-.046-.115.685-.015.013-.015.015-.021.018-.023.015-.028.021-.036.018-.041.018-.046.015-.059.018-.067.013-.077.01-.09.01-.1.005-.115,0-.131,0-.144-.008-.118-.013-.118-.026-.118-.039-.118-.051-.113-.062-.108-.077-.1-.09-.095-.1-.085-.115-.072-.128-.062-.144-.046-.156-.031-.172-.01-.182.005-.2.028-.213.021-.105.023-.1.026-.1.026-.095.028-.09.033-.09.033-.085.036-.08.039-.08.038-.074.044-.072.046-.067.046-.064.051-.062.051-.056.054-.054.059-.051.059-.049.062-.044.064-.041.069-.039.069-.033.072-.031.074-.028.08-.026.079-.021.082-.018.087-.015.087-.013.092-.01.092-.005.1,0,.082,0,.08.005.077.008.077.01.072.01.069.015.067.013.062.015.059.015.051.015.049.015.041.015.036.013.031.01.023.01.015.005-.128.71Z" transform="translate(-960.274 -622.868)" fill="#fff" fill-rule="evenodd"/>
  <path id="Path_3285" data-name="Path 3285" d="M977.423,629.681h0l-.033-.018-.033-.015-.036-.018-.038-.018-.039-.015-.044-.015-.044-.015-.046-.015-.049-.013-.049-.01-.054-.01-.054-.008-.059-.005-.059-.005h-.19l-.067.005-.069.008-.072.013-.072.021-.072.028-.072.036-.072.046-.069.056-.067.067-.064.082-.062.095-.056.113-.054.128-.049.144-.041.164h0l-.015.092-.01.09-.005.09,0,.087.008.087.018.082.023.077.028.077.038.069.046.067.054.059.062.054.069.046.08.038.087.033.1.023h0l.033.008.038.008.046.005.051.005.056.005h.123l.064-.005.067-.008.067-.013.064-.018.064-.021.064-.028.059-.033.054-.041.051-.046-.115.685h0l-.015.013-.015.015-.021.018-.023.015-.028.021-.036.018-.041.018-.046.015-.059.018-.067.013-.077.01-.09.01-.1.005-.115,0-.131,0-.144-.008h0l-.118-.013-.118-.026-.118-.039-.118-.051-.113-.062-.108-.077-.1-.09-.095-.1-.085-.115-.072-.128-.062-.144-.046-.156-.031-.172-.01-.182.005-.2.028-.213h0l.021-.105.023-.1.026-.1.026-.095.028-.09.033-.09.033-.085.036-.08.039-.08.038-.074.044-.072.046-.067.046-.064.051-.062.051-.056.054-.054.059-.051.059-.049.062-.044.064-.041.069-.039.069-.033.072-.031.074-.028.08-.026.079-.021.082-.018.087-.015.087-.013.092-.01.092-.005.1,0h0l.082,0,.08.005.077.008.077.01.072.01.069.015.067.013.062.015.059.015.051.015.049.015.041.015.036.013.031.01.023.01.015.005-.128.71" transform="translate(-960.274 -622.868)" fill="none" stroke="#fff" stroke-miterlimit="2.613" stroke-width="0.216"/>
  <path id="Path_3286" data-name="Path 3286" d="M1025.619,633.09h-.71l.051-.285v-.026l-.041.051-.044.046-.044.041-.046.036-.046.033-.046.028-.046.023-.049.023-.049.018-.049.013-.049.013-.051.008-.051.008-.049.005-.051,0h-.051l-.133-.01-.123-.028-.113-.044-.1-.059-.092-.074-.082-.087-.072-.095-.062-.108-.051-.115-.041-.12-.028-.126-.021-.131-.008-.131,0-.133.013-.131.023-.131.038-.151.046-.144.054-.131.064-.123.067-.115.077-.1.08-.092.085-.085.09-.074.095-.064.1-.056.1-.044.1-.036.1-.023.1-.015.1-.005.074,0,.072.008.067.013.062.018.059.021.051.023.051.028.046.028.041.031.039.033.033.033.031.033.026.033.023.033.021.031.015.031h0l.18-1.008h.7l-.579,3.354Z" transform="translate(-1002.295 -623.685)" fill="#fff" fill-rule="evenodd"/>
  <path id="Path_3287" data-name="Path 3287" d="M1025.619,633.09h-.71l.051-.285v-.026h0l-.041.051-.044.046-.044.041-.046.036-.046.033-.046.028-.046.023-.049.023-.049.018-.049.013-.049.013-.051.008-.051.008-.049.005-.051,0h-.051l-.133-.01-.123-.028-.113-.044-.1-.059-.092-.074-.082-.087-.072-.095-.062-.108-.051-.115-.041-.12-.028-.126-.021-.131-.008-.131,0-.133.013-.131.023-.131h0l.038-.151.046-.144.054-.131.064-.123.067-.115.077-.1.08-.092.085-.085.09-.074.095-.064.1-.056.1-.044.1-.036.1-.023.1-.015.1-.005h0l.074,0,.072.008.067.013.062.018.059.021.051.023.051.028.046.028.041.031.039.033.033.033.031.033.026.033.023.033.021.031.015.031h0l.18-1.008h.7l-.579,3.354" transform="translate(-1002.295 -623.685)" fill="none" stroke="#fff" stroke-miterlimit="2.613" stroke-width="0.216"/>
  <path id="Path_3288" data-name="Path 3288" d="M1029.713,640.271l.072-.005.067-.015.062-.018.059-.028.054-.031.051-.038.049-.044.044-.046.038-.051.036-.056.033-.059.028-.062.026-.064.021-.067.018-.069.013-.069.013-.072.008-.074v-.069l0-.072-.008-.067-.01-.064-.018-.062-.021-.059-.026-.051-.031-.049-.033-.041-.038-.036-.044-.031-.046-.021-.049-.013-.054-.005-.069.005-.064.01-.059.021-.059.026-.051.033-.051.041-.044.044-.043.049-.039.056-.036.059-.033.062-.028.067-.026.069-.021.069-.021.074-.015.074-.013.113.005.123.018.126.033.12.051.105.067.085.084.056.1.021Z" transform="translate(-1007.551 -631.491)" fill="#fea402" fill-rule="evenodd"/>
  <path id="Path_3289" data-name="Path 3289" d="M901.164,636.177l-.1.569h-.646l.018-.105.013-.095.01-.072.01-.038-.036.041-.041.041-.049.038-.054.036-.062.036-.064.031-.067.031-.069.026-.074.023-.074.018-.074.015-.077.01-.074.005-.074,0-.072-.008-.069-.01-.09-.023-.082-.026-.072-.033-.064-.038-.056-.041-.051-.046-.041-.049-.036-.051-.031-.054-.026-.056-.021-.056-.015-.056-.01-.059-.008-.059-.005-.056v-.057l.008-.1.015-.095.026-.09.033-.087.041-.082.046-.074.054-.072.062-.064.064-.059.072-.054.074-.049.077-.041.082-.036.085-.028.087-.023.09-.015h.005l.013,0,.018,0,.028,0,.031-.005.036,0,.038-.005.044-.005.044-.005.044-.005.046,0,.041-.005.041,0,.038,0,.036,0h.087l.062,0,.056,0h.056l.046,0,.036,0,.026,0h.008l.005-.018.015-.046.013-.054.005-.049-.01-.056-.023-.051-.031-.046-.041-.038-.049-.033-.054-.023-.062-.015-.067-.005-.072,0-.077,0h-.08l-.082,0-.085.005-.082.008-.082.008-.079.01-.077.01-.074.013-.067.013-.061.013-.057.015-.046.015-.036.018-.028.015.182-.618.056-.023.056-.021.062-.018.062-.013.062-.013.067-.01.067-.01.069-.005.072-.005.074,0,.077,0h.246l.09,0,.09,0,.072.005.077.013.08.018.082.023.08.031.077.036.077.044.072.049.064.056.056.062.051.069.038.077.026.082.015.087v.1l-.015.1-.259,1.354Z" transform="translate(-894.428 -627.346)" fill="#fff" fill-rule="evenodd"/>
  <path id="Path_3290" data-name="Path 3290" d="M901.164,636.177l-.1.569h-.646l.018-.105.013-.095.01-.072.01-.038h0l-.036.041-.041.041-.049.038-.054.036-.062.036-.064.031-.067.031-.069.026-.074.023-.074.018-.074.015-.077.01-.074.005-.074,0-.072-.008-.069-.01h0l-.09-.023-.082-.026-.072-.033-.064-.038-.056-.041-.051-.046-.041-.049-.036-.051-.031-.054-.026-.056-.021-.056-.015-.056-.01-.059-.008-.059-.005-.056v-.057h0l.008-.1.015-.095.026-.09.033-.087.041-.082.046-.074.054-.072.062-.064.064-.059.072-.054.074-.049.077-.041.082-.036.085-.028.087-.023.09-.015h.005l.013,0,.018,0,.028,0,.031-.005.036,0,.038-.005.044-.005.044-.005.044-.005.046,0,.041-.005.041,0,.038,0,.036,0h.087l.062,0,.056,0h.056l.046,0,.036,0,.026,0h.008l.005-.018.015-.046.013-.054.005-.049h0l-.01-.056-.023-.051-.031-.046-.041-.038-.049-.033-.054-.023-.062-.015-.067-.005h0l-.072,0-.077,0h-.08l-.082,0-.085.005-.082.008-.082.008-.079.01-.077.01-.074.013-.067.013-.061.013-.057.015-.046.015-.036.018-.028.015.182-.618h0l.056-.023.056-.021.062-.018.062-.013.062-.013.067-.01.067-.01.069-.005.072-.005.074,0,.077,0h.246l.09,0,.09,0h0l.072.005.077.013.08.018.082.023.08.031.077.036.077.044.072.049.064.056.056.062.051.069.038.077.026.082.015.087v.1l-.015.1-.259,1.354" transform="translate(-894.428 -627.346)" fill="none" stroke="#fff" stroke-miterlimit="2.613" stroke-width="0.216"/>
  <path id="Path_3291" data-name="Path 3291" d="M905.623,645.023l0-.013-.01-.013-.015-.008-.026-.005-.028-.005-.033,0h-.077l-.041,0-.044.005-.041.005-.041.005-.038.005-.036.008-.031.008-.028.008-.018.005-.021.008-.028.01-.028.013-.033.015-.033.018-.036.018-.033.021-.036.026-.033.026-.031.031-.028.031-.026.033-.018.036-.015.041-.008.041,0,.087.013.069.026.051.033.039.038.026.044.015.041.008.041,0,.077,0,.069-.008.067-.01.059-.015.051-.018.049-.023.044-.023.038-.028.033-.026.031-.031.026-.028.021-.031.018-.031.015-.031.013-.028.008-.028.02-.074.018-.085.015-.082.013-.067Z" transform="translate(-899.511 -636.866)" fill="#d90016" fill-rule="evenodd"/>
  <path id="Path_3292" data-name="Path 3292" d="M871.858,633.008h-.7l.582-3.366h1.213l.115,2,.838-2h1.267l-.595,3.366h-.7l.441-2.515H874.3l-1.044,2.515h-.787l-.005-.105-.018-.279-.023-.4-.026-.456-.026-.459-.023-.4-.018-.292-.005-.123h-.038l-.426,2.515Z" transform="translate(-870.437 -623.603)" fill="#fff" fill-rule="evenodd"/>
  <path id="Path_3293" data-name="Path 3293" d="M871.858,633.008h-.7l.582-3.366h1.213l.115,2,.838-2h1.267l-.595,3.366h-.7l.441-2.515H874.3l-1.044,2.515h-.787l-.005-.105-.018-.279-.023-.4-.026-.456-.026-.459-.023-.4-.018-.292-.005-.123h-.038l-.426,2.515" transform="translate(-870.437 -623.603)" fill="none" stroke="#fff" stroke-miterlimit="2.613" stroke-width="0.216"/>
  <path id="Path_3294" data-name="Path 3294" d="M994.978,636.177l-.105.569h-.644l.005-.105,0-.092v-.069l.005-.031-.033.038-.039.038-.046.036-.051.036-.054.033-.062.031-.064.031-.064.026-.069.02-.072.021-.072.013-.072.01-.074.005-.072,0-.069-.008-.069-.01-.092-.023-.082-.026-.072-.033-.067-.038-.056-.041-.049-.046-.041-.049-.036-.051-.031-.054-.023-.056-.02-.056-.013-.056-.01-.059-.008-.059-.005-.056v-.057l.005-.1.015-.095.023-.09.033-.087.038-.082.049-.074.054-.072.059-.064.067-.059.069-.054.074-.049.08-.041.079-.036.085-.028.085-.023.087-.015h.005l.013,0,.018,0,.026,0,.033-.005.036,0,.038-.005.041-.005.044-.005.046-.005.044,0,.044-.005.041,0,.036,0,.036,0h.09l.062,0,.059,0h.056l.049,0,.041,0,.023,0h.01l.005-.018.008-.046.008-.054.005-.049-.01-.056-.021-.051-.033-.046-.038-.038-.046-.033-.054-.023-.056-.015-.062-.005-.072,0-.077,0h-.079l-.082,0-.085.005-.082.008-.082.008-.079.01-.077.01-.074.013-.067.013-.062.013-.056.015-.046.015-.036.018-.028.015.179-.618.056-.023.059-.021.059-.018.062-.013.064-.013.064-.01.067-.01.069-.005.072-.005.074,0,.074,0h.241l.087,0,.087,0,.072.005.077.013.079.018.082.023.08.031.079.036.077.044.072.049.064.056.059.062.051.069.038.077.028.082.018.087v.1l-.013.1-.269,1.354Z" transform="translate(-975.739 -627.346)" fill="#fff" fill-rule="evenodd"/>
  <path id="Path_3295" data-name="Path 3295" d="M1008.894,650.817l.015-.015.105-.569-.031-.005-.105.569.015-.016v.036l.013,0,0-.013-.015.015Z" transform="translate(-989.766 -641.413)" fill="#fff" fill-rule="evenodd"/>
  <path id="Path_3296" data-name="Path 3296" d="M1004.122,654.325l.015.018h.644v-.036h-.644l.015.018h-.031l0,.018h.018l-.015-.018Z" transform="translate(-985.648 -644.941)" fill="#fff" fill-rule="evenodd"/>
  <path id="Path_3297" data-name="Path 3297" d="M1004.179,652.193l-.023-.021-.01.041,0,.069v.092l-.005.105h.031l.005-.105.005-.092,0-.069v-.021l-.023-.021.026.021Z" transform="translate(-985.657 -643.095)" fill="#fff" fill-rule="evenodd"/>
  <path id="Path_3298" data-name="Path 3298" d="M997.094,652.521h0l.072.01.069.008.072,0,.074-.005.074-.01.072-.013.072-.021.072-.02.064-.026.067-.031.062-.031.054-.036.054-.036.046-.036.041-.041.033-.038-.026-.021-.033.038-.036.036-.046.036-.049.036-.054.031-.062.031-.062.031-.064.026-.067.021-.072.021-.072.013-.069.01-.074.005-.072,0-.069-.008-.067-.01h0l-.005.031Z" transform="translate(-979.565 -643.096)" fill="#fff" fill-rule="evenodd"/>
  <path id="Path_3299" data-name="Path 3299" d="M992.523,649.019h0l0,.056.005.056.008.062.01.059.013.056.021.059.023.059.033.054.036.054.041.049.051.049.059.041.067.041.074.033.085.026.092.023.005-.031-.092-.023-.079-.026-.069-.033-.067-.036-.054-.041-.046-.044-.041-.049-.036-.049-.028-.054-.023-.054-.021-.054-.013-.056-.01-.059-.008-.056-.005-.056,0-.056h-.036Z" transform="translate(-975.601 -640.367)" fill="#fff" fill-rule="evenodd"/>
  <path id="Path_3300" data-name="Path 3300" d="M993.444,641.766h0l-.09.015-.087.023-.085.028-.082.036-.079.041-.077.051-.069.054-.067.062-.062.064-.054.072-.051.077-.038.085-.033.087-.023.092-.015.1-.008.1h.036l0-.1.015-.092.023-.087.033-.087.038-.079.046-.072.054-.072.056-.064.067-.056.069-.054.072-.046.079-.041.077-.036.085-.028.082-.023.085-.015h0v-.031Z" transform="translate(-975.604 -634.088)" fill="#fff" fill-rule="evenodd"/>
  <path id="Path_3301" data-name="Path 3301" d="M999.832,641.37H999.8l-.036.005-.036,0-.041,0-.044.005-.044,0-.046.005-.044.005-.041.005-.038.005-.036,0-.033.005-.026,0-.021,0-.01,0H999.3v.031h.005l.015,0,.015,0,.026,0,.033-.005.036,0,.038-.005.041-.005.044-.005.046-.005.044,0,.044-.005.041,0,.036,0h.064v-.036Z" transform="translate(-981.474 -633.738)" fill="#fff" fill-rule="evenodd"/>
  <path id="Path_3302" data-name="Path 3302" d="M1003.54,641.4l.015-.013h-.01l-.023,0-.041,0-.049-.005h-.115l-.062-.005h-.062v.036h.123l.059.005h.105l.041,0,.023,0h.01l.015-.013-.015.013.013,0,0-.015-.031-.005Z" transform="translate(-984.843 -633.737)" fill="#fff" fill-rule="evenodd"/>
  <path id="Path_3303" data-name="Path 3303" d="M1005.769,640.369h0l0,.049-.008.051-.008.046-.005.018.031.005.005-.018.008-.046.008-.056.008-.049h-.033Z" transform="translate(-987.048 -632.871)" fill="#fff" fill-rule="evenodd"/>
  <path id="Path_3304" data-name="Path 3304" d="M1003.685,638.287v0l.059,0,.054.015.051.023.044.031.036.036.031.044.021.046.01.054h.031l-.01-.059-.021-.056-.036-.049-.041-.041-.049-.036-.057-.023-.059-.015-.064-.008v.033Z" transform="translate(-985.268 -631.04)" fill="#fff" fill-rule="evenodd"/>
  <path id="Path_3305" data-name="Path 3305" d="M995.583,638.377l.026.015.026-.013.033-.018.044-.015.056-.015.062-.013.067-.013.074-.013.074-.01.079-.01.082-.008.082-.008.085-.005h.239l.072,0v-.031l-.072,0-.077-.005h-.079l-.082.005-.085.005-.082.008-.082.008-.079.01-.079.01-.074.013-.067.013-.062.013-.056.015-.049.015-.038.018-.031.018.026.015-.031-.005Z" transform="translate(-978.257 -631.007)" fill="#fff" fill-rule="evenodd"/>
  <path id="Path_3306" data-name="Path 3306" d="M995.772,634.76l-.01.013-.179.618.031.005.179-.618-.01.013-.01-.031-.008,0,0,.01.01-.013Z" transform="translate(-978.247 -628.017)" fill="#fff" fill-rule="evenodd"/>
  <path id="Path_3307" data-name="Path 3307" d="M998.121,633.842h0l-.087-.005-.087,0h-.241l-.074.005-.074,0-.072.005-.069.005-.069.01-.064.01-.064.013-.062.013-.061.018-.059.02-.056.023.01.031.056-.023.059-.02.056-.018.062-.013.064-.013.064-.01.064-.01.069-.005.072-.005.074,0h.315l.087,0h.087v-.031Z" transform="translate(-979.469 -627.212)" fill="#fff" fill-rule="evenodd"/>
  <path id="Path_3308" data-name="Path 3308" d="M1006.264,634.76h0l.013-.105v-.1l-.018-.09-.028-.085-.041-.079-.051-.072-.062-.064-.064-.056-.074-.049-.077-.046-.082-.036-.08-.031-.085-.023-.079-.018-.08-.013-.072-.005v.031l.072.005.074.013.079.018.08.023.079.031.077.036.077.041.069.049.064.056.057.059.051.067.036.074.028.079.018.085v.1l-.013.1h0l.031.005Z" transform="translate(-986.748 -627.265)" fill="#fff" fill-rule="evenodd"/>
  <path id="Path_3309" data-name="Path 3309" d="M1009.684,641.615h0l.269-1.354-.031-.005-.269,1.354h0l.031.005Z" transform="translate(-990.438 -632.782)" fill="#fff" fill-rule="evenodd"/>
  <path id="Path_3310" data-name="Path 3310" d="M999.434,645.007l-.005-.015-.01-.013-.018-.008-.026-.008-.028,0-.033,0h-.039l-.038,0-.041.005-.041.005-.041.005-.039.005-.038.008-.033.005-.033.008-.026.005-.018,0-.021.008-.026.008-.028.01-.033.015-.031.015-.036.018-.033.023-.033.023-.033.028-.028.028-.028.033-.023.036-.018.038-.015.041-.008.044,0,.087.013.069.021.051.031.039.038.026.044.015.044.008.044,0,.077,0,.072-.008.067-.013.059-.018.056-.021.049-.023.046-.026.041-.031.036-.028.031-.033.028-.031.023-.033.018-.031.013-.031.01-.031.008-.028.01-.072.013-.074.01-.072.005-.064Z" transform="translate(-980.808 -636.85)" fill="#fea402" fill-rule="evenodd"/>
  <path id="Path_3311" data-name="Path 3311" d="M1044.1,649.648l.005-.059.02-.069.036-.062.044-.054.054-.044.061-.031.067-.021.072-.008.072.008.067.021.062.031.054.044.044.054.036.062.021.069.005.059h-.077l0-.046-.015-.056-.026-.051-.033-.044-.041-.036-.049-.026-.056-.018-.059-.005-.059.005-.056.018-.049.026-.041.036-.033.044-.026.051-.015.056-.005.046Z" transform="translate(-1020.299 -640.609)" fill="#fff" fill-rule="evenodd"/>
  <path id="Path_3312" data-name="Path 3312" d="M1045.8,650.872v-.154h.141l.031,0,.028.005.021.008.018.01.013.015.01.015.005.018,0,.018,0,.023-.005.018-.008.015-.005.005h-.108l.01,0,.018,0,.015-.005.013-.005.01-.008.005-.008.005-.013v-.018l0-.013-.005-.01-.008-.005-.008-.005-.013,0-.013,0h-.105v.1Z" transform="translate(-1021.768 -641.835)" fill="#fff" fill-rule="evenodd"/>
  <path id="Path_3313" data-name="Path 3313" d="M1044.085,651.852l0,.015.008.074.021.069.036.062.044.051.054.044.062.033.067.021.072.008.072-.008.067-.021.062-.033.054-.044.044-.051.036-.062.021-.069.008-.074,0-.015h-.077l0,.015-.005.062-.015.056-.026.049-.033.044-.041.036-.049.028-.056.018-.059.005-.059-.005-.057-.018-.049-.028-.041-.036-.033-.044-.026-.049-.015-.056-.005-.062v-.015Z" transform="translate(-1020.282 -642.818)" fill="#fff" fill-rule="evenodd"/>
  <path id="Path_3314" data-name="Path 3314" d="M1045.8,651.852v.156h.064v-.128h.064l.077.128h.051l-.077-.128H1046l.018-.005.016-.005.013-.01.005-.008h-.108l-.013,0h-.064v0Z" transform="translate(-1021.768 -642.816)" fill="#fff" fill-rule="evenodd"/>
  <path id="Path_3315" data-name="Path 3315" d="M1044.083,649.664h0l.008-.074.021-.069.036-.062.044-.054.054-.044.062-.031.067-.021.072-.008h0l.072.008.067.021.062.031.054.044.044.054.036.062.021.069.008.074h0l-.008.074-.021.069-.036.062-.044.051-.054.043-.062.033-.067.02-.072.008h0l-.072-.008-.067-.02-.062-.033-.054-.043-.044-.051-.036-.062-.021-.069-.008-.074m.3.141h-.064v-.31h.141l.031,0,.028.005.02.008.018.01.013.016.01.015.005.018,0,.018h0l0,.023-.005.018-.008.015-.01.013-.013.01-.016.005-.018.005h-.018l.077.128h-.051l-.077-.128h-.064v.128m.064-.154h0l.023-.005.018,0,.015-.005.013-.005.01-.008.005-.008.005-.013v-.018h0l0-.013,0-.01-.008-.005-.008-.005-.013,0-.013,0h-.105v.1h.064m0,.31h0l.059-.005.056-.018.049-.028.041-.036.033-.043.026-.049.015-.056.005-.062h0l-.005-.061-.015-.057-.026-.051-.033-.044-.041-.036-.049-.026-.056-.018-.059-.005h0l-.059.005-.056.018-.049.026-.041.036-.033.044-.026.051-.015.057-.005.061h0l.005.062.015.056.026.049.033.043.041.036.049.028.056.018.059.005" transform="translate(-1020.283 -640.612)" fill="none" stroke="#fff" stroke-miterlimit="2.613" stroke-width="0.216"/>
  <path id="Path_3316" data-name="Path 3316" d="M1011.183,636.779h.723l.259-1.459.01-.056.015-.056.015-.056.02-.056.026-.056.031-.054.033-.051.041-.049.046-.044.051-.041.059-.039.067-.031.074-.026.082-.021.09-.015.1-.005h.064l.115-.659-.072.005-.069.008-.064.013-.062.018-.056.02-.054.026-.051.028-.049.031-.046.036-.044.036-.041.041-.041.041-.038.044-.038.049-.039.046-.036.051.077-.464h-.721l-.479,2.746Z" transform="translate(-991.849 -627.378)" fill="#fff" fill-rule="evenodd"/>
  <path id="Path_3317" data-name="Path 3317" d="M1011.183,636.779h.723l.259-1.459h0l.01-.056.015-.056.015-.056.02-.056.026-.056.031-.054.033-.051.041-.049.046-.044.051-.041.059-.039.067-.031.074-.026.082-.021.09-.015.1-.005h.064l.115-.659h0l-.072.005-.069.008-.064.013-.062.018-.056.02-.054.026-.051.028-.049.031-.046.036-.044.036-.041.041-.041.041-.038.044-.038.049-.039.046-.036.051.077-.464h-.721l-.479,2.746h0" transform="translate(-991.849 -627.378)" fill="none" stroke="#fff" stroke-miterlimit="2.613" stroke-width="0.216"/>
  <path id="Path_3318" data-name="Path 3318" d="M961.172,636.779h.736l.246-1.459.01-.056.013-.054.013-.054.018-.051.021-.051.026-.049.031-.046.036-.044.041-.038.046-.038.056-.031.062-.028.072-.023.08-.021.087-.013.1-.008h.008l.01,0,.013,0h.013l.013,0,.01,0,.008,0h0l0-.01.008-.031.01-.046.013-.056.018-.067.018-.072.023-.072.023-.072.021-.049.026-.049.026-.049.026-.044.023-.038.018-.031.013-.018.005-.008h0l-.01,0-.013,0-.018,0h-.018l-.021,0-.018,0h-.018l-.079.005-.072.008-.067.013-.062.016-.059.02-.054.026-.049.026-.046.031-.044.033-.041.038-.038.039-.038.044-.038.044-.036.049-.038.051-.038.051.092-.464h-.736l-.479,2.746Z" transform="translate(-948.45 -627.378)" fill="#fff" fill-rule="evenodd"/>
  <path id="Path_3319" data-name="Path 3319" d="M961.172,636.779h.736l.246-1.459h0l.01-.056.013-.054.013-.054.018-.051.021-.051.026-.049.031-.046.036-.044.041-.038.046-.038.056-.031.062-.028.072-.023.08-.021.087-.013.1-.008h.008l.01,0,.013,0h.013l.013,0,.01,0,.008,0h0l0-.01.008-.031.01-.046.013-.056.018-.067.018-.072.023-.072.023-.072h0l.021-.049.026-.049.026-.049.026-.044.023-.038.018-.031.013-.018.005-.008h0l-.01,0-.013,0-.018,0h-.018l-.021,0-.018,0h-.018l-.079.005-.072.008-.067.013-.062.016-.059.02-.054.026-.049.026-.046.031-.044.033-.041.038-.038.039-.038.044-.038.044-.036.049-.038.051-.038.051.092-.464h-.736l-.479,2.746h0" transform="translate(-948.45 -627.378)" fill="none" stroke="#fff" stroke-miterlimit="2.613" stroke-width="0.216"/>
  <path id="Path_3320" data-name="Path 3320" d="M1044.139,672.5v-.01l.021-.067.036-.059.043-.051.054-.041.062-.031.067-.018.072-.008.072.008.067.018.061.031.054.041.044.051.036.059.021.067v.01h-.074l-.015-.054-.026-.049-.033-.044-.041-.036-.049-.028-.056-.018-.059-.005-.059.005-.056.018-.049.028-.041.036-.033.044-.026.049-.015.054Z" transform="translate(-1020.331 -660.45)" fill="#fea402" fill-rule="evenodd"/>
  <path id="Path_3321" data-name="Path 3321" d="M1045.8,673.736v-.09h.172l.028.005.021.005.018.01.013.013.01.015.005.018,0,.023h-.051v-.013l0-.013-.005-.01-.008-.005-.008-.005-.013,0-.013,0h-.105v.051Z" transform="translate(-1021.768 -661.691)" fill="#fea402" fill-rule="evenodd"/>
  <path id="Path_3322" data-name="Path 3322" d="M1044.083,674.364l.008-.056h.074v0l-.005.054Z" transform="translate(-1020.282 -662.302)" fill="#fea402" fill-rule="evenodd"/>
  <path id="Path_3323" data-name="Path 3323" d="M1045.8,674.364v-.056h.064v.051h.064l.023-.005.018,0,.015-.005.013-.005.01-.008.005-.008.005-.013v-.005h.051l0,.018-.005.015-.008.013-.01.01Z" transform="translate(-1021.768 -662.302)" fill="#fea402" fill-rule="evenodd"/>
  <path id="Path_3324" data-name="Path 3324" d="M1048.809,674.364l-.005-.054v0h.074l.008.056Z" transform="translate(-1024.363 -662.302)" fill="#fea402" fill-rule="evenodd"/>
  <path id="Path_3325" data-name="Path 3325" d="M1044.083,674.723v.008l.008.074.021.069.036.062.044.054.054.044.062.031.067.02.072.008.072-.008.067-.02.062-.031.054-.044.044-.054.036-.062.021-.069.008-.074v-.008h-.077v.008l-.005.062-.015.056-.026.049-.033.044-.041.036-.049.028-.056.018-.059.005-.059-.005-.057-.018-.049-.028-.041-.036-.033-.044-.026-.049-.015-.056-.005-.062v-.008Z" transform="translate(-1020.282 -662.661)" fill="#fea402" fill-rule="evenodd"/>
  <path id="Path_3326" data-name="Path 3326" d="M1045.8,674.723v.149h.064v-.128h.064l.077.128h.051l-.077-.128H1046l.018-.005.016-.005.013-.01h-.244Z" transform="translate(-1021.768 -662.661)" fill="#fea402" fill-rule="evenodd"/>
</svg>
