<svg id="Visa" xmlns="http://www.w3.org/2000/svg" width="45" height="15" viewBox="0 0 45 15">
  <g id="Group_356" data-name="Group 356">
    <path id="Path_3258" data-name="Path 3258" d="M56.969,66.679H53.2l2.354-14.492h3.767Z" transform="translate(-37.429 -51.928)" fill="#004c9b"/>
    <path id="Path_3259" data-name="Path 3259" d="M24.3,52.187l-3.592,9.967-.425-2.146h0L19.02,53.492a1.613,1.613,0,0,0-1.787-1.305H11.3l-.069.245a14.06,14.06,0,0,1,3.94,1.657l3.273,12.59h3.925l5.993-14.492Z" transform="translate(-11.227 -51.928)" fill="#004c9b"/>
    <path id="Path_3260" data-name="Path 3260" d="M105.823,66.679h3.459l-3.016-14.492h-3.029a1.732,1.732,0,0,0-1.739,1.08L95.881,66.679h3.926l.786-2.152h4.789Zm-4.145-5.126,1.98-5.423,1.114,5.423Z" transform="translate(-64.282 -51.928)" fill="#004c9b"/>
    <path id="Path_3261" data-name="Path 3261" d="M79.657,55.262l.537-3.112a10.859,10.859,0,0,0-3.388-.632c-1.869,0-6.308.819-6.308,4.8,0,3.744,5.21,3.791,5.21,5.756s-4.673,1.614-6.215.374l-.56,3.253a10.538,10.538,0,0,0,4.252.819c2.57,0,6.449-1.334,6.449-4.961,0-3.768-5.257-4.119-5.257-5.756S78.045,54.372,79.657,55.262Z" transform="translate(-47.344 -51.518)" fill="#004c9b"/>
  </g>
  <path id="Path_3262" data-name="Path 3262" d="M20.288,60,19.02,53.49a1.612,1.612,0,0,0-1.787-1.3H11.3l-.069.245a14.605,14.605,0,0,1,5.591,2.807A11.285,11.285,0,0,1,20.288,60Z" transform="translate(-11.227 -51.928)" fill="#f99410"/>
</svg>
